<svg width="598" height="269" viewBox="0 0 598 269" fill="none" xmlns="http://www.w3.org/2000/svg">
<path d="M20.9247 111.352V99.1818H78.2656V111.352H56.8906V169H42.2997V111.352H20.9247ZM87.7088 169V99.1818H102.47V127.989H132.436V99.1818H147.163V169H132.436V140.159H102.47V169H87.7088ZM171.368 169H155.55L179.652 99.1818H198.675L222.743 169H206.925L189.436 115.136H188.891L171.368 169ZM170.379 141.557H207.743V153.08H170.379V141.557ZM289.544 99.1818V169H276.794L246.419 125.057H245.908V169H231.146V99.1818H244.101L274.237 143.091H274.851V99.1818H289.544ZM313.774 169H297.956L322.058 99.1818H341.081L365.149 169H349.331L331.842 115.136H331.297L313.774 169ZM312.786 141.557H350.149V153.08H312.786V141.557ZM431.95 99.1818V169H419.2L388.825 125.057H388.314V169H373.553V99.1818H386.507L416.643 143.091H417.257V99.1818H431.95ZM456.18 169H440.362L464.464 99.1818H483.487L507.555 169H491.737L474.249 115.136H473.703L456.18 169ZM455.192 141.557H492.555V153.08H455.192V141.557ZM574.357 99.1818V169H561.607L531.232 125.057H530.72V169H515.959V99.1818H528.913L559.05 143.091H559.663V99.1818H574.357Z" fill="#ED4B6B"/>
</svg>
