<svg xmlns="http://www.w3.org/2000/svg"
    xmlns:xlink="http://www.w3.org/1999/xlink" viewBox="0 0 1200 1200" width="1200" height="1200" preserveAspectRatio="xMidYMid meet" style="width: 100%; height: 100%; transform: translate3d(0px, 0px, 0px); content-visibility: visible;" id="Business Salesman">
    <defs>
        <clipPath id="__lottie_element_6576">
            <rect width="1200" height="1200" x="0" y="0"/>
        </clipPath>
        <clipPath id="__lottie_element_6578">
            <path d="M0,0 L1200,0 L1200,1200 L0,1200z"/>
        </clipPath>
        <clipPath id="__lottie_element_6582">
            <path d="M0,0 L1200,0 L1200,1200 L0,1200z"/>
        </clipPath>
        <linearGradient id="__lottie_element_6588" spreadMethod="pad" gradientUnits="userSpaceOnUse" x1="2" y1="137" x2="-2" y2="-239">
            <stop offset="0%" stop-color="rgb(255,255,255)"/>
            <stop offset="50%" stop-color="rgb(180,216,253)"/>
            <stop offset="100%" stop-color="rgb(104,178,252)"/>
        </linearGradient>
        <linearGradient id="__lottie_element_6598" spreadMethod="pad" gradientUnits="userSpaceOnUse" x1="-402" y1="0" x2="405" y2="0">
            <stop offset="0%" stop-color="rgb(82,155,247)"/>
            <stop offset="50%" stop-color="rgb(93,167,249)"/>
            <stop offset="100%" stop-color="rgb(104,178,252)"/>
        </linearGradient>
        <linearGradient id="__lottie_element_6605" spreadMethod="pad" gradientUnits="userSpaceOnUse" x1="-21.5" y1="0" x2="26" y2="0">
            <stop offset="0%" stop-color="rgb(82,155,247)"/>
            <stop offset="50%" stop-color="rgb(60,124,224)"/>
            <stop offset="100%" stop-color="rgb(39,93,201)"/>
        </linearGradient>
        <linearGradient id="__lottie_element_6606" spreadMethod="pad" gradientUnits="userSpaceOnUse" x1="-18.5" y1="0" x2="100" y2="0">
            <stop offset="0%" stop-color="rgb(82,155,247)"/>
            <stop offset="50%" stop-color="rgb(60,124,224)"/>
            <stop offset="100%" stop-color="rgb(39,93,201)"/>
        </linearGradient>
        <linearGradient id="__lottie_element_6607" spreadMethod="pad" gradientUnits="userSpaceOnUse" x1="-39" y1="0" x2="52" y2="0">
            <stop offset="0%" stop-color="rgb(82,155,247)"/>
            <stop offset="50%" stop-color="rgb(93,167,249)"/>
            <stop offset="100%" stop-color="rgb(104,178,252)"/>
        </linearGradient>
        <linearGradient id="__lottie_element_6608" spreadMethod="pad" gradientUnits="userSpaceOnUse" x1="-40" y1="0" x2="100" y2="0">
            <stop offset="0%" stop-color="rgb(82,155,247)"/>
            <stop offset="50%" stop-color="rgb(93,167,249)"/>
            <stop offset="100%" stop-color="rgb(104,178,252)"/>
        </linearGradient>
        <linearGradient id="__lottie_element_6609" spreadMethod="pad" gradientUnits="userSpaceOnUse" x1="-62" y1="0" x2="100" y2="0">
            <stop offset="0%" stop-color="rgb(82,155,247)"/>
            <stop offset="50%" stop-color="rgb(93,167,249)"/>
            <stop offset="100%" stop-color="rgb(104,178,252)"/>
        </linearGradient>
        <linearGradient id="__lottie_element_6625" spreadMethod="pad" gradientUnits="userSpaceOnUse" x1="-87" y1="116" x2="77" y2="-137">
            <stop offset="0%" stop-color="rgb(82,155,247)"/>
            <stop offset="50%" stop-color="rgb(93,167,249)"/>
            <stop offset="100%" stop-color="rgb(104,178,252)"/>
        </linearGradient>
        <symbol id="__lottie_element_6629">
            <g>
                <g transform="matrix(1,0,0,1,0,19.62811279296875)" opacity="1" style="display: block;">
                    <g opacity="1" transform="matrix(1,0,0,1,630.0919799804688,615.9099731445312)">
                        <path fill="rgb(255,255,255)" fill-opacity="1" d=" M-30.673999786376953,-225.34800720214844 C-30.673999786376953,-225.34800720214844 -201.5189971923828,60.07099914550781 -201.5189971923828,60.07099914550781 C-211.29100036621094,76.70099639892578 -205.73199462890625,98.10199737548828 -189.10299682617188,107.875 C-189.10299682617188,107.875 -5.820000171661377,215.57699584960938 -5.820000171661377,215.57699584960938 C10.809000015258789,225.34800720214844 32.21200180053711,219.78900146484375 41.98400115966797,203.16000366210938 C41.98400115966797,203.16000366210938 211.2899932861328,-79.68800354003906 211.2899932861328,-79.68800354003906 C211.2899932861328,-79.68800354003906 -30.673999786376953,-225.34800720214844 -30.673999786376953,-225.34800720214844z"/>
                    </g>
                    <g opacity="1" transform="matrix(1,0,0,1,630.0919799804688,615.9099731445312)">
                        <path fill="rgb(255,255,255)" fill-opacity="1" d=" M-30.673999786376953,-225.34800720214844 C-30.673999786376953,-225.34800720214844 -201.5189971923828,60.07099914550781 -201.5189971923828,60.07099914550781 C-211.29100036621094,76.70099639892578 -205.73199462890625,98.10199737548828 -189.10299682617188,107.875 C-189.10299682617188,107.875 -5.820000171661377,215.57699584960938 -5.820000171661377,215.57699584960938 C10.809000015258789,225.34800720214844 32.21200180053711,219.78900146484375 41.98400115966797,203.16000366210938 C41.98400115966797,203.16000366210938 211.2899932861328,-79.68800354003906 211.2899932861328,-79.68800354003906 C211.2899932861328,-79.68800354003906 -30.673999786376953,-225.34800720214844 -30.673999786376953,-225.34800720214844z"/>
                    </g>
                    <g opacity="1" transform="matrix(1,0,0,1,630.0919799804688,615.9099731445312)">
                        <path fill="rgb(255,255,255)" fill-opacity="1" d=" M-30.673999786376953,-225.34800720214844 C-30.673999786376953,-225.34800720214844 -201.5189971923828,60.07099914550781 -201.5189971923828,60.07099914550781 C-211.29100036621094,76.70099639892578 -205.73199462890625,98.10199737548828 -189.10299682617188,107.875 C-189.10299682617188,107.875 -5.820000171661377,215.57699584960938 -5.820000171661377,215.57699584960938 C10.809000015258789,225.34800720214844 32.21200180053711,219.78900146484375 41.98400115966797,203.16000366210938 C41.98400115966797,203.16000366210938 211.2899932861328,-79.68800354003906 211.2899932861328,-79.68800354003906 C211.2899932861328,-79.68800354003906 -30.673999786376953,-225.34800720214844 -30.673999786376953,-225.34800720214844z"/>
                    </g>
                </g>
            </g>
        </symbol>
        <symbol id="__lottie_element_6635">
            <g>
                <g transform="matrix(1,0,0,1,0,19.62811279296875)" opacity="1" style="display: block;">
                    <g opacity="1" transform="matrix(1,0,0,1,630.0919799804688,615.9099731445312)">
                        <path fill="rgb(255,255,255)" fill-opacity="1" d=" M-30.673999786376953,-225.34800720214844 C-30.673999786376953,-225.34800720214844 -201.5189971923828,60.07099914550781 -201.5189971923828,60.07099914550781 C-211.29100036621094,76.70099639892578 -205.73199462890625,98.10199737548828 -189.10299682617188,107.875 C-189.10299682617188,107.875 -5.820000171661377,215.57699584960938 -5.820000171661377,215.57699584960938 C10.809000015258789,225.34800720214844 32.21200180053711,219.78900146484375 41.98400115966797,203.16000366210938 C41.98400115966797,203.16000366210938 211.2899932861328,-79.68800354003906 211.2899932861328,-79.68800354003906 C211.2899932861328,-79.68800354003906 -30.673999786376953,-225.34800720214844 -30.673999786376953,-225.34800720214844z"/>
                    </g>
                    <g opacity="1" transform="matrix(1,0,0,1,630.0919799804688,615.9099731445312)">
                        <path fill="rgb(255,255,255)" fill-opacity="1" d=" M-30.673999786376953,-225.34800720214844 C-30.673999786376953,-225.34800720214844 -201.5189971923828,60.07099914550781 -201.5189971923828,60.07099914550781 C-211.29100036621094,76.70099639892578 -205.73199462890625,98.10199737548828 -189.10299682617188,107.875 C-189.10299682617188,107.875 -5.820000171661377,215.57699584960938 -5.820000171661377,215.57699584960938 C10.809000015258789,225.34800720214844 32.21200180053711,219.78900146484375 41.98400115966797,203.16000366210938 C41.98400115966797,203.16000366210938 211.2899932861328,-79.68800354003906 211.2899932861328,-79.68800354003906 C211.2899932861328,-79.68800354003906 -30.673999786376953,-225.34800720214844 -30.673999786376953,-225.34800720214844z"/>
                    </g>
                    <g opacity="1" transform="matrix(1,0,0,1,630.0919799804688,615.9099731445312)">
                        <path fill="rgb(255,255,255)" fill-opacity="1" d=" M-30.673999786376953,-225.34800720214844 C-30.673999786376953,-225.34800720214844 -201.5189971923828,60.07099914550781 -201.5189971923828,60.07099914550781 C-211.29100036621094,76.70099639892578 -205.73199462890625,98.10199737548828 -189.10299682617188,107.875 C-189.10299682617188,107.875 -5.820000171661377,215.57699584960938 -5.820000171661377,215.57699584960938 C10.809000015258789,225.34800720214844 32.21200180053711,219.78900146484375 41.98400115966797,203.16000366210938 C41.98400115966797,203.16000366210938 211.2899932861328,-79.68800354003906 211.2899932861328,-79.68800354003906 C211.2899932861328,-79.68800354003906 -30.673999786376953,-225.34800720214844 -30.673999786376953,-225.34800720214844z"/>
                    </g>
                </g>
            </g>
        </symbol>
        <mask id="__lottie_element_6635_1" mask-type="alpha">
            <use xmlns:ns1="http://www.w3.org/1999/xlink" ns1:href="#__lottie_element_6635"/>
        </mask>
        <mask id="__lottie_element_6629_1" mask-type="alpha">
            <use xmlns:ns2="http://www.w3.org/1999/xlink" ns2:href="#__lottie_element_6629"/>
        </mask>
    </defs>
    <g clip-path="url(#__lottie_element_6576)">
        <g clip-path="url(#__lottie_element_6578)" transform="matrix(1,0,0,1,0,0)" opacity="1" style="display: block;">
            <g transform="matrix(1,0,0,1,0,0)" opacity="1" style="display: block;">
                <g opacity="1" transform="matrix(1,0,0,1,539.6279907226562,842.958984375)">
                    <path fill="url(#__lottie_element_6588)" fill-opacity="1" d=" M-290.23199462890625,137.1219940185547 C-340.01300048828125,95.68900299072266 -346.0719909667969,24.724000930786133 -311.031005859375,-17.702999114990234 C-283.14300537109375,-51.46799850463867 -232.21299743652344,-63.5369987487793 -186.24600219726562,-45.43199920654297 C-162.18899536132812,-98.57099914550781 -110.3550033569336,-133.5749969482422 -53.117000579833984,-135.2760009765625 C8.96500015258789,-137.1219940185547 66.66300201416016,-99.47100067138672 91.05400085449219,-40.8120002746582 C134.58799743652344,-87.69999694824219 200.23800659179688,-90.58699798583984 234.3249969482422,-59.297000885009766 C269.06298828125,-27.409000396728516 258.02801513671875,28.049999237060547 257.4339904785156,30.823999404907227 C258.7449951171875,29.816999435424805 290.5849914550781,5.943999767303467 312.8919982910156,16.958999633789062 C334.9110107421875,27.83099937438965 346.0710144042969,71.91600036621094 319.82501220703125,116.32599639892578 C116.4729995727539,123.25900268554688 -86.87899780273438,130.18899536132812 -290.23199462890625,137.1219940185547z"/>
                </g>
            </g>
            <g transform="matrix(1,0,0,1,0,0)" opacity="1" style="display: block;">
                <g opacity="1" transform="matrix(1,0,0,1,766.7360229492188,828.1240234375)">
                    <path fill="rgb(255,255,255)" fill-opacity="1" d=" M-15.605999946594238,27.718000411987305 C-15.605999946594238,27.718000411987305 -13.388999938964844,12.45199966430664 -13.388999938964844,12.45199966430664 C-13.388999938964844,12.45199966430664 -20.29599952697754,12.45199966430664 -20.29599952697754,12.45199966430664 C-20.29599952697754,12.45199966430664 -20.29599952697754,4.605000019073486 -20.29599952697754,4.605000019073486 C-20.29599952697754,4.605000019073486 -12.024999618530273,4.605000019073486 -12.024999618530273,4.605000019073486 C-12.024999618530273,4.605000019073486 -10.659000396728516,-4.947000026702881 -10.659000396728516,-4.947000026702881 C-10.659000396728516,-4.947000026702881 -17.906999588012695,-4.947000026702881 -17.906999588012695,-4.947000026702881 C-17.906999588012695,-4.947000026702881 -17.906999588012695,-12.878000259399414 -17.906999588012695,-12.878000259399414 C-17.906999588012695,-12.878000259399414 -9.465999603271484,-12.878000259399414 -9.465999603271484,-12.878000259399414 C-9.465999603271484,-12.878000259399414 -7.334000110626221,-27.718000411987305 -7.334000110626221,-27.718000411987305 C-7.334000110626221,-27.718000411987305 0.25600001215934753,-27.718000411987305 0.25600001215934753,-27.718000411987305 C0.25600001215934753,-27.718000411987305 -1.8760000467300415,-12.878000259399414 -1.8760000467300415,-12.878000259399414 C-1.8760000467300415,-12.878000259399414 5.883999824523926,-12.878000259399414 5.883999824523926,-12.878000259399414 C5.883999824523926,-12.878000259399414 8.10200023651123,-27.718000411987305 8.10200023651123,-27.718000411987305 C8.10200023651123,-27.718000411987305 15.6899995803833,-27.718000411987305 15.6899995803833,-27.718000411987305 C15.6899995803833,-27.718000411987305 13.473999977111816,-12.878000259399414 13.473999977111816,-12.878000259399414 C13.473999977111816,-12.878000259399414 20.297000885009766,-12.878000259399414 20.297000885009766,-12.878000259399414 C20.297000885009766,-12.878000259399414 20.297000885009766,-4.947000026702881 20.297000885009766,-4.947000026702881 C20.297000885009766,-4.947000026702881 12.281000137329102,-4.947000026702881 12.281000137329102,-4.947000026702881 C12.281000137329102,-4.947000026702881 10.916000366210938,4.605000019073486 10.916000366210938,4.605000019073486 C10.916000366210938,4.605000019073486 17.993999481201172,4.605000019073486 17.993999481201172,4.605000019073486 C17.993999481201172,4.605000019073486 17.993999481201172,12.45199966430664 17.993999481201172,12.45199966430664 C17.993999481201172,12.45199966430664 9.63700008392334,12.45199966430664 9.63700008392334,12.45199966430664 C9.63700008392334,12.45199966430664 7.505000114440918,27.718000411987305 7.505000114440918,27.718000411987305 C7.505000114440918,27.718000411987305 -0.17100000381469727,27.718000411987305 -0.17100000381469727,27.718000411987305 C-0.17100000381469727,27.718000411987305 1.9609999656677246,12.45199966430664 1.9609999656677246,12.45199966430664 C1.9609999656677246,12.45199966430664 -5.798999786376953,12.45199966430664 -5.798999786376953,12.45199966430664 C-5.798999786376953,12.45199966430664 -7.931000232696533,27.718000411987305 -7.931000232696533,27.718000411987305 C-7.931000232696533,27.718000411987305 -15.605999946594238,27.718000411987305 -15.605999946594238,27.718000411987305z M3.3259999752044678,4.605000019073486 C3.3259999752044678,4.605000019073486 4.690000057220459,-4.947000026702881 4.690000057220459,-4.947000026702881 C4.690000057220459,-4.947000026702881 -3.069999933242798,-4.947000026702881 -3.069999933242798,-4.947000026702881 C-3.069999933242798,-4.947000026702881 -4.434000015258789,4.605000019073486 -4.434000015258789,4.605000019073486 C-4.434000015258789,4.605000019073486 3.3259999752044678,4.605000019073486 3.3259999752044678,4.605000019073486z"/>
                </g>
            </g>
            <g transform="matrix(1,0,0,1,0,0)" opacity="1" style="display: block;">
                <g opacity="1" transform="matrix(0.9928204417228699,0.11961421370506287,-0.11961421370506287,0.9928204417228699,118.12811279296875,-41.525390625)">
                    <g opacity="1" transform="matrix(1,0,0,1,365.4630126953125,869.8790283203125)">
                        <path fill="rgb(26,26,26)" fill-opacity="1" d=" M38.053001403808594,87.60600280761719 C19.773000717163086,74.23200225830078 5.9720001220703125,57.03099822998047 -4.447000026702881,38.60900115966797 C-20.07699966430664,10.979999542236328 -28.08099937438965,-19.386999130249023 -32.1609992980957,-43.527000427246094 C-36.24399948120117,-67.66699981689453 -36.409000396728516,-85.5770034790039 -36.409000396728516,-88.29000091552734 C-36.409000396728516,-88.41100311279297 -36.40800094604492,-88.5 -36.40800094604492,-88.56099700927734 C-36.40800094604492,-88.58999633789062 -36.409000396728516,-88.61299896240234 -36.40800094604492,-88.62699890136719 C-36.40800094604492,-88.62699890136719 -36.40800094604492,-88.64800262451172 -36.40800094604492,-88.64800262451172 C-36.402000427246094,-89.2699966430664 -36.900001525878906,-89.77999877929688 -37.52299880981445,-89.78700256347656 C-38.14500045776367,-89.79299926757812 -38.654998779296875,-89.29399871826172 -38.6619987487793,-88.6709976196289 C-38.6619987487793,-88.66699981689453 -38.66299819946289,-88.53900146484375 -38.66299819946289,-88.29000091552734 C-38.6619987487793,-84.55000305175781 -38.36600112915039,-53.75600051879883 -28.81800079345703,-17.076000213623047 C-24.04199981689453,1.2649999856948853 -16.95199966430664,21.079999923706055 -6.408999919891357,39.71900177001953 C4.131999969482422,58.356998443603516 18.131999969482422,75.8239974975586 36.72100067138672,89.42500305175781 C37.2239990234375,89.79299926757812 37.92900085449219,89.68399810791016 38.297000885009766,89.18099975585938 C38.66400146484375,88.67900085449219 38.55500030517578,87.9729995727539 38.053001403808594,87.60600280761719z"/>
                    </g>
                    <g opacity="1" transform="matrix(0.8158288598060608,-0.5782933831214905,0.5782933831214905,0.8158288598060608,-389.3908386230469,330.4770202636719)">
                        <g opacity="1" transform="matrix(1,0,0,1,324.1499938964844,776.5780029296875)">
                            <path fill="rgb(51,158,125)" fill-opacity="1" d=" M44.340999603271484,-16.14900016784668 C44.840999603271484,-8.956000328063965 38.946998596191406,-2.681999921798706 31.18199920654297,-2.1510000228881836 C38.946998596191406,-2.681999921798706 45.643001556396484,2.7209999561309814 46.13800048828125,9.916999816894531 C46.63600158691406,17.118000030517578 40.74100112915039,23.38599967956543 32.97800064086914,23.92300033569336 C30.1560001373291,24.115999221801758 24.743000030517578,21.246999740600586 22.44700050354004,20.06999969482422 C25.291000366210938,22.275999069213867 29.92300033569336,27.80500030517578 30.17799949645996,31.51799964904785 C30.599000930786133,37.5880012512207 26.5049991607666,43.01300048828125 20.57200050354004,44.9370002746582 C19.41200065612793,45.31100082397461 18.187999725341797,45.55400085449219 16.908000946044922,45.643001556396484 C15.628999710083008,45.73099899291992 14.381999969482422,45.65700149536133 13.180999755859375,45.44499969482422 C8.230999946594238,44.566001892089844 4.15500020980835,41.2760009765625 2.5429999828338623,36.85300064086914 C1.5470000505447388,41.45600128173828 -2.0369999408721924,45.27299880981445 -6.817999839782715,46.82099914550781 C-7.9770002365112305,47.194000244140625 -9.201000213623047,47.4379997253418 -10.479999542236328,47.5260009765625 C-11.760000228881836,47.6150016784668 -13.006999969482422,47.540000915527344 -14.206999778747559,47.327999114990234 C-20.350000381469727,46.23899841308594 -25.145000457763672,41.43199920654297 -25.56599998474121,35.36199951171875 C-25.825000762939453,31.64299964904785 -20.990999221801758,25.2810001373291 -18.48200035095215,22.702999114990234 C-20.58799934387207,24.18000030517578 -26.55699920654297,28.02199935913086 -29.384000778198242,28.216999053955078 C-37.14699935913086,28.753999710083008 -43.84199905395508,23.35099983215332 -44.34000015258789,16.149999618530273 C-44.834999084472656,8.954000473022461 -38.94300079345703,2.680999994277954 -31.17799949645996,2.1489999294281006 C-38.94300079345703,2.680999994277954 -45.643001556396484,-2.7200000286102295 -46.13800048828125,-9.916000366210938 C-46.63600158691406,-17.117000579833984 -40.742000579833984,-23.385000228881836 -32.97800064086914,-23.92099952697754 C-30.152000427246094,-24.117000579833984 -25.753000259399414,-22.67300033569336 -23.459999084472656,-21.500999450683594 C-26.304000854492188,-23.70599937438965 -29.92300033569336,-27.80299949645996 -30.17799949645996,-31.517000198364258 C-30.594999313354492,-37.59000015258789 -26.5049991607666,-43.012001037597656 -20.57200050354004,-44.93600082397461 C-19.41200065612793,-45.308998107910156 -18.187999725341797,-45.553001403808594 -16.909000396728516,-45.64099884033203 C-15.628999710083008,-45.72999954223633 -14.381999969482422,-45.65599822998047 -13.180999755859375,-45.44300079345703 C-8.232000350952148,-44.564998626708984 -4.156000137329102,-41.275001525878906 -2.5380001068115234,-36.854000091552734 C-1.5479999780654907,-41.45600128173828 2.0409998893737793,-45.27399826049805 6.822000026702881,-46.821998596191406 C7.98199987411499,-47.19599914550781 9.206000328063965,-47.43899917602539 10.486000061035156,-47.52799987792969 C11.765000343322754,-47.61600112915039 13.01099967956543,-47.542999267578125 14.211999893188477,-47.33000183105469 C20.350000381469727,-46.23699951171875 25.149999618530273,-41.43299865722656 25.56599998474121,-35.36000061035156 C25.823999404907227,-31.642000198364258 22.632999420166016,-27.113000869750977 20.124000549316406,-24.53499984741211 C22.235000610351562,-26.014999389648438 26.562999725341797,-28.02400016784668 29.384000778198242,-28.215999603271484 C37.14799880981445,-28.753000259399414 43.847999572753906,-23.351999282836914 44.340999603271484,-16.14900016784668z"/>
                        </g>
                        <g opacity="1" transform="matrix(1,0,0,1,309.8330078125,795.0230102539062)">
                            <path fill="rgb(26,26,26)" fill-opacity="1" d=" M17.57200050354004,18.173999786376953 C14.880000114440918,9.984000205993652 13.064000129699707,1.99399995803833 13.0649995803833,-5.583000183105469 C13.0649995803833,-9.934000015258789 13.66100025177002,-14.14900016784668 15.029000282287598,-18.204999923706055 C15.128999710083008,-18.499000549316406 15.03499984741211,-18.82699966430664 14.795999526977539,-19.02400016784668 C14.555000305175781,-19.222000122070312 14.217000007629395,-19.25200080871582 13.946000099182129,-19.097999572753906 C8.697999954223633,-16.121000289916992 3.1630001068115234,-14.824000358581543 -2.6470000743865967,-14.821999549865723 C-7.1620001792907715,-14.821999549865723 -11.843000411987305,-15.609999656677246 -16.652999877929688,-17.01799964904785 C-17.052000045776367,-17.135000228881836 -17.4689998626709,-16.9060001373291 -17.584999084472656,-16.507999420166016 C-17.70199966430664,-16.108999252319336 -17.472999572753906,-15.692000389099121 -17.075000762939453,-15.574999809265137 C-12.157999992370605,-14.137999534606934 -7.3379998207092285,-13.319000244140625 -2.6470000743865967,-13.319000244140625 C2.7939999103546143,-13.317999839782715 8.060999870300293,-14.428999900817871 13.062999725341797,-16.93000030517578 C12.022000312805176,-13.246000289916992 11.562000274658203,-9.45300006866455 11.562000274658203,-5.583000183105469 C11.562999725341797,2.234999895095825 13.425999641418457,10.368000030517578 16.143999099731445,18.64299964904785 C16.27400016784668,19.03700065612793 16.697999954223633,19.25200080871582 17.093000411987305,19.121999740600586 C17.48699951171875,18.993000030517578 17.70199966430664,18.569000244140625 17.57200050354004,18.173999786376953z"/>
                        </g>
                        <g opacity="1" transform="matrix(1,0,0,1,338.4620056152344,758.72998046875)">
                            <path fill="rgb(26,26,26)" fill-opacity="1" d=" M17.594999313354492,15.503000259399414 C17.48699951171875,15.102999687194824 17.072999954223633,14.866000175476074 16.672000885009766,14.975000381469727 C9.32699966430664,16.969999313354492 2.2219998836517334,18.35300064086914 -4.335999965667725,18.351999282836914 C-7.484000205993652,18.351999282836914 -10.501999855041504,18.02899932861328 -13.368000030517578,17.31399917602539 C-12.121999740600586,13.005000114440918 -11.484000205993652,8.508999824523926 -11.484000205993652,3.8259999752044678 C-11.484000205993652,-3.4210000038146973 -13.008999824523926,-11.11299991607666 -16.150999069213867,-19.274999618530273 C-16.299999237060547,-19.663000106811523 -16.735000610351562,-19.854999542236328 -17.121999740600586,-19.707000732421875 C-17.509000778198242,-19.558000564575195 -17.702999114990234,-19.12299919128418 -17.55299949645996,-18.735000610351562 C-14.467000007629395,-10.715999603271484 -12.987000465393066,-3.2090001106262207 -12.987000465393066,3.8259999752044678 C-12.987000465393066,8.638999938964844 -13.678999900817871,13.232000350952148 -15.029999732971191,17.62700080871582 C-15.09000015258789,17.82200050354004 -15.067999839782715,18.030000686645508 -14.970000267028809,18.208999633789062 C-14.871999740600586,18.38800048828125 -14.708999633789062,18.51799964904785 -14.51200008392334,18.57200050354004 C-11.272000312805176,19.468000411987305 -7.864999771118164,19.854999542236328 -4.335999965667725,19.854999542236328 C2.433000087738037,19.854000091552734 9.654999732971191,18.437000274658203 17.06599998474121,16.424999237060547 C17.466999053955078,16.31599998474121 17.70400047302246,15.902999877929688 17.594999313354492,15.503000259399414z"/>
                        </g>
                    </g>
                </g>
                <g opacity="1" transform="matrix(0.9853661060333252,-0.17045120894908905,0.17045120894908905,0.9853661060333252,-151.71823120117188,97.1920166015625)">
                    <g opacity="1" transform="matrix(1,0,0,1,355.2690124511719,905.5679931640625)">
                        <path fill="rgb(26,26,26)" fill-opacity="1" d=" M135.4969940185547,25.06800079345703 C110.13500213623047,4.238999843597412 81.02999877929688,-8.82800006866455 51.54399871826172,-16.68899917602539 C22.055999755859375,-24.548999786376953 -7.817999839782715,-27.204999923706055 -34.763999938964844,-27.20599937438965 C-91.3489990234375,-27.20400047302246 -135.031005859375,-15.489999771118164 -135.09100341796875,-15.475000381469727 C-135.6929931640625,-15.314000129699707 -136.0489959716797,-14.696000099182129 -135.88800048828125,-14.093999862670898 C-135.7270050048828,-13.494000434875488 -135.10899353027344,-13.13599967956543 -134.5070037841797,-13.29699993133545 C-134.5070037841797,-13.29699993133545 -134.47900390625,-13.305000305175781 -134.47900390625,-13.305000305175781 C-133.20399475097656,-13.645000457763672 -90.16100311279297,-24.952999114990234 -34.763999938964844,-24.95199966430664 C-7.966000080108643,-24.95199966430664 21.72100067138672,-22.305999755859375 50.9640007019043,-14.510000228881836 C80.20899963378906,-6.714000225067139 109.00399780273438,6.2270002365112305 134.0659942626953,26.809999465942383 C134.5469970703125,27.20599937438965 135.25799560546875,27.135000228881836 135.6529998779297,26.655000686645508 C136.04800415039062,26.17300033569336 135.97799682617188,25.464000701904297 135.4969940185547,25.06800079345703z"/>
                    </g>
                    <g opacity="1" transform="matrix(0.8791437149047852,-0.4765567481517792,0.4765567481517792,0.8791437149047852,-398.05303955078125,212.77178955078125)">
                        <g opacity="1" transform="matrix(1,0,0,1,220.4709930419922,891.1840209960938)">
                            <path fill="rgb(18,119,84)" fill-opacity="1" d=" M-6.366000175476074,64.94200134277344 C3.440000057220459,63.1349983215332 9.812999725341797,53.084999084472656 7.853000164031982,42.500999450683594 C9.812999725341797,53.084999084472656 19.354999542236328,60.191001892089844 29.163000106811523,58.37799835205078 C38.979000091552734,56.564998626708984 45.345001220703125,46.512001037597656 43.391998291015625,35.93000030517578 C42.678001403808594,32.084999084472656 36.9739990234375,25.820999145507812 34.60599899291992,23.150999069213867 C38.540000915527344,26.201000213623047 47.53900146484375,30.50200080871582 52.599998474121094,29.565000534057617 C60.875999450683594,28.040000915527344 66.73100280761719,20.687000274658203 67.26499938964844,12.079000473022461 C67.36599731445312,10.397000312805176 67.27200317382812,8.67300033569336 66.9489974975586,6.928999900817871 C66.62699890136719,5.185999870300293 66.0989990234375,3.5409998893737793 65.4010009765625,2.005000114440918 C62.52000045776367,-4.321000099182129 56.71099853515625,-8.64799976348877 50.231998443603516,-9.28499984741211 C56.05500030517578,-12.20300006866455 59.93199920654297,-18.31599998474121 60.36000061035156,-25.250999450683594 C60.46099853515625,-26.933000564575195 60.36600112915039,-28.656999588012695 60.04399871826172,-30.400999069213867 C59.72200012207031,-32.14500045776367 59.194000244140625,-33.78900146484375 58.49599838256836,-35.32500076293945 C54.922000885009766,-43.17599868774414 46.83399963378906,-47.944000244140625 38.558998107910156,-46.417999267578125 C33.4900016784668,-45.48500061035156 26.632999420166016,-36.819000244140625 24.04400062561035,-32.57099914550781 C25.297000885009766,-35.9010009765625 28.38800048828125,-45.21900177001953 27.677000045776367,-49.073001861572266 C25.724000930786133,-59.654998779296875 16.18199920654297,-66.76100158691406 6.366000175476074,-64.94999694824219 C-3.441999912261963,-63.1349983215332 -9.8149995803833,-53.08399963378906 -7.854000091552734,-42.5 C-9.8149995803833,-53.08399963378906 -19.354999542236328,-60.19900131225586 -29.163000106811523,-58.3849983215332 C-38.97800064086914,-56.573001861572266 -45.345001220703125,-46.52000045776367 -43.39099884033203,-35.9379997253418 C-42.67900085449219,-32.08399963378906 -39.23099899291992,-26.68899917602539 -36.87099838256836,-24.02199935913086 C-40.80400085449219,-27.07200050354004 -47.53799819946289,-30.509000778198242 -52.599998474121094,-29.572999954223633 C-60.87699890136719,-28.038999557495117 -66.73100280761719,-20.69499969482422 -67.26499938964844,-12.086000442504883 C-67.36599731445312,-10.406000137329102 -67.27100372314453,-8.680999755859375 -66.9489974975586,-6.936999797821045 C-66.62699890136719,-5.193999767303467 -66.0979995727539,-3.5480000972747803 -65.4010009765625,-2.0139999389648438 C-62.52000045776367,4.313000202178955 -56.71099853515625,8.638999938964844 -50.23400115966797,9.28499984741211 C-56.05400085449219,12.194999694824219 -59.933998107910156,18.315000534057617 -60.36199951171875,25.25200080871582 C-60.4630012512207,26.93199920654297 -60.36800003051758,28.656999588012695 -60.04600143432617,30.400999069213867 C-59.7239990234375,32.14400100708008 -59.19599914550781,33.790000915527344 -58.49700164794922,35.32400131225586 C-54.922000885009766,43.16899871826172 -46.83599853515625,47.944000244140625 -38.55799865722656,46.4109992980957 C-33.4900016784668,45.47600173950195 -28.52199935913086,39.641998291015625 -25.933000564575195,35.39400100708008 C-27.18899917602539,38.73099899291992 -28.389999389648438,45.21799850463867 -27.677000045776367,49.064998626708984 C-25.722999572753906,59.64699935913086 -16.183000564575195,66.76100158691406 -6.366000175476074,64.94200134277344z"/>
                        </g>
                        <g opacity="1" transform="matrix(1,0,0,1,241.6179962158203,869.9019775390625)">
                            <path fill="rgb(255,255,255)" fill-opacity="1" d=" M29.135000228881836,11.246999740600586 C25.464000701904297,11.005000114440918 21.839000701904297,10.864999771118164 18.277000427246094,10.864999771118164 C10.894000053405762,10.866000175476074 3.7809998989105225,11.463000297546387 -2.9110000133514404,12.984000205993652 C-8.987000465393066,14.364999771118164 -14.717000007629395,16.51300048828125 -19.972999572753906,19.663999557495117 C-19.17099952697754,16.173999786376953 -18.78499984741211,12.711000442504883 -18.78499984741211,9.276000022888184 C-18.785999298095703,-1.2879999876022339 -22.38800048828125,-11.5600004196167 -28.358999252319336,-21.60700035095215 C-28.570999145507812,-21.96299934387207 -29.0310001373291,-22.07900047302246 -29.386999130249023,-21.867000579833984 C-29.743999481201172,-21.655000686645508 -29.86199951171875,-21.194000244140625 -29.649999618530273,-20.836999893188477 C-23.770999908447266,-10.944000244140625 -20.288000106811523,-0.9390000104904175 -20.288000106811523,9.276000022888184 C-20.288999557495117,13.173999786376953 -20.795000076293945,17.104999542236328 -21.874000549316406,21.08300018310547 C-21.954999923706055,21.382999420166016 -21.840999603271484,21.704999923706055 -21.59000015258789,21.88800048828125 C-21.339000701904297,22.06999969482422 -20.99799919128418,22.07900047302246 -20.738000869750977,21.909000396728516 C-15.22599983215332,18.32200050354004 -9.130000114440918,15.939000129699707 -2.5789999961853027,14.449999809265137 C3.9709999561309814,12.961000442504883 10.973999977111816,12.366999626159668 18.277000427246094,12.368000030517578 C21.799999237060547,12.366999626159668 25.391000747680664,12.505999565124512 29.03499984741211,12.746999740600586 C29.448999404907227,12.77400016784668 29.80699920654297,12.461000442504883 29.833999633789062,12.04699993133545 C29.86199951171875,11.631999969482422 29.548999786376953,11.27400016784668 29.135000228881836,11.246999740600586z"/>
                        </g>
                        <g opacity="1" transform="matrix(1,0,0,1,199.27000427246094,912.4210205078125)">
                            <path fill="rgb(255,255,255)" fill-opacity="1" d=" M28.20199966430664,-3.1410000324249268 C26.996000289916992,-9.881999969482422 25.0049991607666,-16.12299919128418 21.851999282836914,-21.61400032043457 C21.750999450683594,-21.790000915527344 21.583999633789062,-21.91699981689453 21.386999130249023,-21.968000411987305 C21.18899917602539,-22.01799964904785 20.981000900268555,-21.98699951171875 20.80699920654297,-21.8799991607666 C10.208999633789062,-15.387999534606934 -2.2709999084472656,-11.979999542236328 -16.886999130249023,-11.977999687194824 C-20.756000518798828,-11.977999687194824 -24.77400016784668,-12.217000007629395 -28.94499969482422,-12.70300006866455 C-29.357999801635742,-12.75100040435791 -29.73200035095215,-12.454999923706055 -29.77899932861328,-12.043000221252441 C-29.827999114990234,-11.630999565124512 -29.5310001373291,-11.258000373840332 -29.118999481201172,-11.210000038146973 C-24.893999099731445,-10.718000411987305 -20.81800079345703,-10.475000381469727 -16.886999130249023,-10.475000381469727 C-2.3440001010894775,-10.473999977111816 10.217000007629395,-13.810999870300293 20.92099952697754,-20.195999145507812 C23.75,-15.057000160217285 25.58799934387207,-9.218000411987305 26.722999572753906,-2.875999927520752 C27.9060001373291,3.742000102996826 28.326000213623047,10.902999877929688 28.326000213623047,18.36199951171875 C28.326000213623047,19.31999969482422 28.31800079345703,20.284000396728516 28.30500030517578,21.25200080871582 C28.298999786376953,21.66699981689453 28.631000518798828,22.006999969482422 29.04599952697754,22.01300048828125 C29.461000442504883,22.01799964904785 29.802000045776367,21.68600082397461 29.80699920654297,21.270999908447266 C29.820999145507812,20.297000885009766 29.82699966430664,19.327999114990234 29.82699966430664,18.36199951171875 C29.82699966430664,10.845999717712402 29.408000946044922,3.6010000705718994 28.20199966430664,-3.1410000324249268z"/>
                        </g>
                    </g>
                </g>
                <g opacity="1" transform="matrix(0.9753104448318481,0.22083823382854462,-0.22083823382854462,0.9753104448318481,247.11566162109375,-163.2774658203125)">
                    <g opacity="1" transform="matrix(1,0,0,1,927.5570068359375,934.6539916992188)">
                        <path fill="rgb(26,26,26)" fill-opacity="1" d=" M75.71700286865234,-88.23200225830078 C75.44400024414062,-88.79100036621094 74.76899719238281,-89.02200317382812 74.20899963378906,-88.7490005493164 C74.15499877929688,-88.72100067138672 41.39699935913086,-72.697998046875 6.255000114440918,-42.66600036621094 C-11.3149995803833,-27.648000717163086 -29.482999801635742,-9.126999855041504 -44.448001861572266,12.666000366210938 C-59.4109992980957,34.457000732421875 -71.1719970703125,59.52899932861328 -75.88700103759766,87.62100219726562 C-75.98999786376953,88.23400115966797 -75.57599639892578,88.81600189208984 -74.96199798583984,88.91799926757812 C-74.34700012207031,89.02200317382812 -73.76599884033203,88.60700225830078 -73.66400146484375,87.99400329589844 C-69.01399993896484,60.292999267578125 -57.409000396728516,35.5260009765625 -42.59000015258789,13.942000389099121 C-20.36199951171875,-18.43199920654297 9.098999977111816,-43.62200164794922 33.000999450683594,-60.698001861572266 C44.95199966430664,-69.23600006103516 55.512001037597656,-75.74800109863281 63.077999114990234,-80.12300109863281 C66.86299896240234,-82.30899810791016 69.89800262451172,-83.96199798583984 71.98500061035156,-85.06700134277344 C73.02799987792969,-85.62000274658203 73.83399963378906,-86.03500366210938 74.37799835205078,-86.31099700927734 C74.6510009765625,-86.44999694824219 74.85700225830078,-86.5530014038086 74.99500274658203,-86.62300109863281 C75.06400299072266,-86.65699768066406 75.11499786376953,-86.68199920654297 75.1500015258789,-86.6989974975586 C75.18399810791016,-86.71600341796875 75.1989974975586,-86.7239990234375 75.1989974975586,-86.7239990234375 C75.75900268554688,-86.99800109863281 75.98999786376953,-87.6719970703125 75.71700286865234,-88.23200225830078z"/>
                    </g>
                    <g opacity="1" transform="matrix(0.853505551815033,0.5210837721824646,-0.5210837721824646,0.853505551815033,588.1410522460938,-398.19366455078125)">
                        <g opacity="1" transform="matrix(1,0,0,1,1002.260009765625,846.9169921875)">
                            <path fill="rgb(18,119,84)" fill-opacity="1" d=" M40.154998779296875,37.874000549316406 C32.89899826049805,42.172000885009766 23.249000549316406,39.305999755859375 18.617000579833984,31.466999053955078 C23.249000549316406,39.305999755859375 21.114999771118164,49.14099884033203 13.85200023651123,53.435001373291016 C6.586999893188477,57.73400115966797 -3.059999942779541,54.862998962402344 -7.696000099182129,47.029998779296875 C-9.378000259399414,44.180999755859375 -9.222000122070312,37.016998291015625 -9.196999549865723,33.999000549316406 C-10.008999824523926,38.12900161743164 -13.357000350952148,45.87300109863281 -17.104999542236328,48.0890007019043 C-23.229000091552734,51.715999603271484 -31.048999786376953,50.28099822998047 -36.17399978637695,45.0890007019043 C-37.17300033569336,44.073001861572266 -38.07099914550781,42.92100143432617 -38.83399963378906,41.630001068115234 C-39.5989990234375,40.3390007019043 -40.17599868774414,38.99599838256836 -40.58399963378906,37.630001068115234 C-42.26300048828125,31.993999481201172 -40.9640007019043,26.006999969482422 -37.1870002746582,22 C-42.52199935913086,23.375 -48.39099884033203,21.632999420166016 -52.51900100708008,17.447999954223633 C-53.518001556396484,16.433000564575195 -54.415000915527344,15.281000137329102 -55.17900085449219,13.989999771118164 C-55.94300079345703,12.699000358581543 -56.520999908447266,11.355999946594238 -56.928001403808594,9.989999771118164 C-59.013999938964844,2.996999979019165 -56.50600051879883,-4.539000034332275 -50.38199996948242,-8.166000366210938 C-46.63100051879883,-10.38700008392334 -37.44300079345703,-8.67199993133545 -33.430999755859375,-7.4019999504089355 C-36.08000183105469,-8.829000473022461 -43.23099899291992,-13.053999900817871 -44.917999267578125,-15.906000137329102 C-49.55400085449219,-23.73900032043457 -47.41999816894531,-33.573001861572266 -40.154998779296875,-37.87300109863281 C-32.891998291015625,-42.16699981689453 -23.242000579833984,-39.301998138427734 -18.610000610351562,-31.464000701904297 C-23.242000579833984,-39.301998138427734 -21.11400032043457,-49.13999938964844 -13.85200023651123,-53.433998107910156 C-6.585999965667725,-57.733001708984375 3.059999942779541,-54.86199951171875 7.696000099182129,-47.02899932861328 C9.383999824523926,-44.176998138427734 10.184000015258789,-38.819000244140625 10.161999702453613,-35.80699920654297 C10.975000381469727,-39.9379997253418 13.357999801635742,-45.87300109863281 17.104999542236328,-48.0890007019043 C23.236000061035156,-51.71200180053711 31.051000595092773,-50.28099822998047 36.17499923706055,-45.0890007019043 C37.17399978637695,-44.073001861572266 38.071998596191406,-42.92100143432617 38.83599853515625,-41.630001068115234 C39.5989990234375,-40.3390007019043 40.17599868774414,-38.99700164794922 40.584999084472656,-37.630001068115234 C42.263999938964844,-31.9950008392334 40.96500015258789,-26.007999420166016 37.19300079345703,-21.996000289916992 C42.52199935913086,-23.375999450683594 48.39699935913086,-21.6299991607666 52.525001525878906,-17.444000244140625 C53.52399826049805,-16.429000854492188 54.422000885009766,-15.276000022888184 55.185001373291016,-13.984999656677246 C55.95000076293945,-12.694000244140625 56.527000427246094,-11.352999687194824 56.935001373291016,-9.984999656677246 C59.013999938964844,-2.996000051498413 56.512001037597656,4.541999816894531 50.382999420166016,8.164999961853027 C46.63199996948242,10.38700008392334 40.22100067138672,9.428000450134277 36.209999084472656,8.157999992370605 C38.8650016784668,9.588000297546387 43.23699951171875,13.057000160217285 44.91999816894531,15.906000137329102 C49.55500030517578,23.73900032043457 47.42599868774414,33.57699966430664 40.154998779296875,37.874000549316406z"/>
                        </g>
                        <g opacity="1" transform="matrix(1,0,0,1,983.655029296875,842.1909790039062)">
                            <path fill="rgb(255,255,255)" fill-opacity="1" d=" M19.024999618530273,4.1020002365112305 C13.793000221252441,0.6050000190734863 9.835000038146973,-3.8320000171661377 6.86899995803833,-9.050000190734863 C3.9059998989105225,-14.267999649047852 1.940999984741211,-20.270999908447266 0.734000027179718,-26.875 C0.6600000262260437,-27.283000946044922 0.2669999897480011,-27.55299949645996 -0.14100000262260437,-27.479000091552734 C-0.5490000247955322,-27.40399932861328 -0.8190000057220459,-27.01300048828125 -0.7450000047683716,-26.604999542236328 C0.48500001430511475,-19.87700080871582 2.494999885559082,-13.708999633789062 5.561999797821045,-8.307000160217285 C8.336999893188477,-3.4200000762939453 11.984999656677246,0.8309999704360962 16.677000045776367,4.285999774932861 C10.298999786376953,5.466000080108643 4.323999881744385,8.050000190734863 -1.3519999980926514,11.604000091552734 C-7.567999839782715,15.496000289916992 -13.432000160217285,20.54199981689453 -19.113000869750977,26.194000244140625 C-19.406999588012695,26.48699951171875 -19.408000946044922,26.961999893188477 -19.114999771118164,27.256000518798828 C-18.822999954223633,27.551000595092773 -18.34600067138672,27.552000045776367 -18.052000045776367,27.259000778198242 C-12.420999526977539,21.656999588012695 -6.635000228881836,16.68400001525879 -0.5550000071525574,12.876999855041504 C5.5269999504089355,9.071000099182129 11.895000457763672,6.432000160217285 18.71299934387207,5.4710001945495605 C19.020000457763672,5.427999973297119 19.270000457763672,5.197999954223633 19.339000701904297,4.894000053405762 C19.409000396728516,4.591000080108643 19.283000946044922,4.275000095367432 19.024999618530273,4.1020002365112305z"/>
                        </g>
                        <g opacity="1" transform="matrix(1,0,0,1,1020.885009765625,851.6519775390625)">
                            <path fill="rgb(255,255,255)" fill-opacity="1" d=" M19.07200050354004,-27.290000915527344 C18.763999938964844,-27.569000244140625 18.290000915527344,-27.547000885009766 18.010000228881836,-27.23900032043457 C12.307999610900879,-20.97100067138672 6.385000228881836,-16.08099937438965 0.25699999928474426,-12.484000205993652 C-5.872000217437744,-8.88700008392334 -12.206000328063965,-6.579999923706055 -18.74799919128418,-5.47599983215332 C-18.948999404907227,-5.440999984741211 -19.12700080871582,-5.328999996185303 -19.242000579833984,-5.160999774932861 C-19.358999252319336,-4.993000030517578 -19.400999069213867,-4.788000106811523 -19.36199951171875,-4.5879998207092285 C-18.249000549316406,1.0199999809265137 -15.824000358581543,6.434999942779541 -12.543999671936035,11.71500015258789 C-9.263999938964844,16.996000289916992 -5.127999782562256,22.14699935913086 -0.5730000138282776,27.232999801635742 C-0.29499998688697815,27.542999267578125 0.1809999942779541,27.569000244140625 0.49000000953674316,27.29199981689453 C0.800000011920929,27.014999389648438 0.824999988079071,26.540000915527344 0.5490000247955322,26.231000900268555 C-3.9730000495910645,21.18400001525879 -8.055000305175781,16.0939998626709 -11.267999649047852,10.92199993133545 C-14.331000328063965,5.988999843597412 -16.599000930786133,0.984000027179718 -17.726999282836914,-4.132999897003174 C-11.276000022888184,-5.315000057220459 -5.019000053405762,-7.644000053405762 1.0160000324249268,-11.187000274658203 C7.294000148773193,-14.871999740600586 13.333000183105469,-19.86400032043457 19.121000289916992,-26.22800064086914 C19.399999618530273,-26.53499984741211 19.378999710083008,-27.01099967956543 19.07200050354004,-27.290000915527344z"/>
                        </g>
                    </g>
                </g>
            </g>
            <g transform="matrix(1,0,0,1,0,0)" opacity="1" style="display: block;">
                <g opacity="1" transform="matrix(1,0,0,1,536.4840087890625,986.8720092773438)">
                    <path fill="url(#__lottie_element_6598)" fill-opacity="1" d=" M351.97900390625,18.479000091552734 C380.2799987792969,10.263999938964844 396.39801025390625,0.8130000233650208 396.39801025390625,-9.244000434875488 C396.39801025390625,-40.88100051879883 236.9250030517578,-66.52899932861328 40.20600128173828,-66.52899932861328 C-144.00799560546875,-66.52899932861328 -295.5559997558594,-44.03900146484375 -314.0820007324219,-15.199999809265137 C-363.63299560546875,-7.271999835968018 -396.39801025390625,6.4629998207092285 -396.39801025390625,22.08099937438965 C-396.39801025390625,46.62799835205078 -315.4519958496094,66.52899932861328 -215.60000610351562,66.52899932861328 C-150.94000244140625,66.52899932861328 -94.20899963378906,58.183998107910156 -62.250999450683594,45.63600158691406 C-29.80299949645996,47.20100021362305 4.590000152587891,48.04199981689453 40.20600128173828,48.04199981689453 C84.13099670410156,48.04199981689453 126.1969985961914,46.762001037597656 165.0469970703125,44.42300033569336 C182.36199951171875,52.95800018310547 224.78199768066406,58.987998962402344 274.37200927734375,58.987998962402344 C339.3529968261719,58.987998962402344 392.0299987792969,48.632999420166016 392.0299987792969,35.861000061035156 C392.0299987792969,28.933000564575195 376.52899169921875,22.718000411987305 351.97900390625,18.479000091552734z"/>
                </g>
            </g>
            <g transform="matrix(1,0,0,1,0,0)" opacity="0.5" style="display: block;">
                <g opacity="1" transform="matrix(1,0,0,1,590.8309936523438,982.969970703125)">
                    <path fill="rgb(20,42,82)" fill-opacity="1" d=" M129.97300720214844,0 C129.97300720214844,13.720000267028809 71.78299713134766,24.841999053955078 0,24.841999053955078 C-71.78099822998047,24.841999053955078 -129.9720001220703,13.720000267028809 -129.9720001220703,0 C-129.9720001220703,-13.720000267028809 -71.78099822998047,-24.840999603271484 0,-24.840999603271484 C71.78299713134766,-24.840999603271484 129.97300720214844,-13.720000267028809 129.97300720214844,0z"/>
                </g>
            </g>
            <g transform="matrix(1,0,0,1,0,0)" opacity="1" style="display: block;">
                <g opacity="1" transform="matrix(1,0,0,1,425.6189880371094,829.9550170898438)">
                    <path fill="url(#__lottie_element_6605)" fill-opacity="1" d=" M19.059999465942383,0 C19.059999465942383,10.527000427246094 10.526000022888184,19.062000274658203 -0.0010000000474974513,19.062000274658203 C-10.527000427246094,19.062000274658203 -19.059999465942383,10.527000427246094 -19.059999465942383,0 C-19.059999465942383,-10.527999877929688 -10.527000427246094,-19.062000274658203 -0.0010000000474974513,-19.062000274658203 C10.526000022888184,-19.062000274658203 19.059999465942383,-10.527999877929688 19.059999465942383,0z"/>
                </g>
                <g opacity="1" transform="matrix(1,0,0,1,380.10699462890625,631.4340209960938)">
                    <path fill="url(#__lottie_element_6606)" fill-opacity="1" d=" M12.47700023651123,0 C12.47700023651123,6.892000198364258 6.889999866485596,12.479000091552734 -0.0010000000474974513,12.479000091552734 C-6.890999794006348,12.479000091552734 -12.47700023651123,6.892000198364258 -12.47700023651123,0 C-12.47700023651123,-6.89300012588501 -6.890999794006348,-12.479000091552734 -0.0010000000474974513,-12.479000091552734 C6.889999866485596,-12.479000091552734 12.47700023651123,-6.89300012588501 12.47700023651123,0z"/>
                </g>
                <g opacity="1" transform="matrix(1,0,0,1,925.239990234375,801.4979858398438)">
                    <path fill="url(#__lottie_element_6607)" fill-opacity="1" d=" M32.279998779296875,0 C32.279998779296875,17.82699966430664 17.827999114990234,32.27899932861328 0.0010000000474974513,32.27899932861328 C-17.82699966430664,32.27899932861328 -32.279998779296875,17.82699966430664 -32.279998779296875,0 C-32.279998779296875,-17.827999114990234 -17.82699966430664,-32.27899932861328 0.0010000000474974513,-32.27899932861328 C17.827999114990234,-32.27899932861328 32.279998779296875,-17.827999114990234 32.279998779296875,0z"/>
                </g>
                <g opacity="1" transform="matrix(1,0,0,1,234.95199584960938,761.1300048828125)">
                    <path fill="url(#__lottie_element_6608)" fill-opacity="1" d=" M16.753999710083008,0 C16.753999710083008,9.251999855041504 9.253999710083008,16.753999710083008 0.0010000000474974513,16.753999710083008 C-9.251999855041504,16.753999710083008 -16.753000259399414,9.251999855041504 -16.753000259399414,0 C-16.753000259399414,-9.253000259399414 -9.251999855041504,-16.753000259399414 0.0010000000474974513,-16.753000259399414 C9.253999710083008,-16.753000259399414 16.753999710083008,-9.253000259399414 16.753999710083008,0z"/>
                </g>
                <g opacity="1" transform="matrix(1,0,0,1,715.1259765625,235.11900329589844)">
                    <path fill="url(#__lottie_element_6609)" fill-opacity="1" d=" M45.926998138427734,0 C45.926998138427734,25.364999771118164 25.364999771118164,45.928001403808594 -0.0010000000474974513,45.928001403808594 C-25.365999221801758,45.928001403808594 -45.928001403808594,25.364999771118164 -45.928001403808594,0 C-45.928001403808594,-25.364999771118164 -25.365999221801758,-45.928001403808594 -0.0010000000474974513,-45.928001403808594 C25.364999771118164,-45.928001403808594 45.926998138427734,-25.364999771118164 45.926998138427734,0z"/>
                </g>
            </g>
            <g transform="matrix(1,0,0,1,0,0)" opacity="1" style="display: block;">
                <g opacity="1" transform="matrix(1,0,0,1,364.3580017089844,339.2799987792969)">
                    <path fill="rgb(255,176,19)" fill-opacity="1" d=" M65.23100280761719,0 C65.23100280761719,36.02899932861328 36.0260009765625,65.23699951171875 0,65.23699951171875 C-36.0260009765625,65.23699951171875 -65.23100280761719,36.02899932861328 -65.23100280761719,0 C-65.23100280761719,-36.029998779296875 -36.0260009765625,-65.23699951171875 0,-65.23699951171875 C36.0260009765625,-65.23699951171875 65.23100280761719,-36.029998779296875 65.23100280761719,0z"/>
                </g>
                <g opacity="1" transform="matrix(1,0,0,1,364.3580017089844,339.2799987792969)">
                    <path fill="rgb(255,222,111)" fill-opacity="1" d=" M53.74800109863281,0 C53.74800109863281,29.687000274658203 29.684999465942383,53.75299835205078 0,53.75299835205078 C-29.68400001525879,53.75299835205078 -53.74800109863281,29.687000274658203 -53.74800109863281,0 C-53.74800109863281,-29.687000274658203 -29.68400001525879,-53.75299835205078 0,-53.75299835205078 C29.684999465942383,-53.75299835205078 53.74800109863281,-29.687000274658203 53.74800109863281,0z"/>
                </g>
                <g opacity="1" transform="matrix(-0.9718204736709595,0.23572233319282532,-0.23572233319282532,-0.9718204736709595,349.0830078125,331.6119689941406)">
                    <path fill="rgb(26,26,26)" fill-opacity="1" d=" M13.40999984741211,9.46500015258789 C13.40999984741211,9.46500015258789 -11.694999694824219,-11.592000007629395 -11.694999694824219,-11.592000007629395 C-11.694999694824219,-11.592000007629395 -13.949000358581543,-11.065999984741211 -13.949000358581543,-11.065999984741211 C-13.949000358581543,-10.730999946594238 -13.803000450134277,-10.416999816894531 -13.54699993133545,-10.20199966430664 C-13.54699993133545,-10.20199966430664 11.961000442504883,11.192999839782715 11.961000442504883,11.192999839782715 C12.437999725341797,11.592000007629395 13.14799976348877,11.529999732971191 13.54800033569336,11.053000450134277 C13.949000358581543,10.576000213623047 13.88700008392334,9.864999771118164 13.40999984741211,9.46500015258789z"/>
                </g>
                <g opacity="1" transform="matrix(1,0,0,1,364.3590087890625,323.0320129394531)">
                    <path fill="rgb(26,26,26)" fill-opacity="1" d=" M1.1269999742507935,16.628999710083008 C1.1269999742507935,16.628999710083008 1.128999948501587,-8.237000465393066 1.128999948501587,-8.237000465393066 C1.128999948501587,-8.720999717712402 0.824999988079071,-9.133000373840332 0.39800000190734863,-9.293000221252441 C0.2750000059604645,-9.33899974822998 0.14100000262260437,-9.364999771118164 0.0020000000949949026,-9.364999771118164 C-0.6209999918937683,-9.364999771118164 -1.125,-8.859999656677246 -1.125,-8.237000465393066 C-1.125,-8.237000465393066 -1.1269999742507935,17.155000686645508 -1.1269999742507935,17.155000686645508 C-1.1269999742507935,17.48900032043457 1.1269999742507935,16.628999710083008 1.1269999742507935,16.628999710083008z"/>
                </g>
            </g>
            <g transform="matrix(1,0,0,1,0,39.25616455078125)" opacity="1" style="display: block;">
                <g opacity="1" transform="matrix(1,0,0,1,849.114013671875,663.2730102539062)">
                    <path fill="rgb(219,103,103)" fill-opacity="1" d=" M-6.436999797821045,6.59499979019165 C-6.436999797821045,6.59499979019165 -10.130000114440918,17.780000686645508 -10.130000114440918,17.780000686645508 C-10.130000114440918,17.780000686645508 -14.878999710083008,17.780000686645508 -14.878999710083008,17.780000686645508 C-14.878999710083008,17.780000686645508 -2.796999931335449,-17.7810001373291 -2.796999931335449,-17.7810001373291 C-2.796999931335449,-17.7810001373291 2.743000030517578,-17.7810001373291 2.743000030517578,-17.7810001373291 C2.743000030517578,-17.7810001373291 14.878000259399414,17.780000686645508 14.878000259399414,17.780000686645508 C14.878000259399414,17.780000686645508 9.970999717712402,17.780000686645508 9.970999717712402,17.780000686645508 C9.970999717712402,17.780000686645508 6.171999931335449,6.59499979019165 6.171999931335449,6.59499979019165 C6.171999931335449,6.59499979019165 -6.436999797821045,6.59499979019165 -6.436999797821045,6.59499979019165z M5.223999977111816,3.006999969482422 C5.223999977111816,3.006999969482422 1.7410000562667847,-7.228000164031982 1.7410000562667847,-7.228000164031982 C0.949999988079071,-9.550000190734863 0.42100000381469727,-11.65999984741211 -0.10599999874830246,-13.718000411987305 C-0.10599999874830246,-13.718000411987305 -0.21199999749660492,-13.718000411987305 -0.21199999749660492,-13.718000411987305 C-0.7390000224113464,-11.607000350952148 -1.319000005722046,-9.444000244140625 -2.005000114440918,-7.281000137329102 C-2.005000114440918,-7.281000137329102 -5.48799991607666,3.006999969482422 -5.48799991607666,3.006999969482422 C-5.48799991607666,3.006999969482422 5.223999977111816,3.006999969482422 5.223999977111816,3.006999969482422z"/>
                </g>
                <g opacity="1" transform="matrix(1,0,0,1,912.7760009765625,652.5159912109375)">
                    <path fill="rgb(175,128,175)" fill-opacity="1" d=" M42.38199996948242,2.0829999446868896 C42.38199996948242,2.0829999446868896 -42.38199996948242,2.0829999446868896 -42.38199996948242,2.0829999446868896 C-42.38199996948242,2.0829999446868896 -42.38199996948242,-2.0820000171661377 -42.38199996948242,-2.0820000171661377 C-42.38199996948242,-2.0820000171661377 42.38199996948242,-2.0820000171661377 42.38199996948242,-2.0820000171661377 C42.38199996948242,-2.0820000171661377 42.38199996948242,2.0829999446868896 42.38199996948242,2.0829999446868896z"/>
                </g>
                <g opacity="1" transform="matrix(1,0,0,1,912.7760009765625,675.5430297851562)">
                    <path fill="rgb(175,128,175)" fill-opacity="1" d=" M42.38199996948242,2.0829999446868896 C42.38199996948242,2.0829999446868896 -42.38199996948242,2.0829999446868896 -42.38199996948242,2.0829999446868896 C-42.38199996948242,2.0829999446868896 -42.38199996948242,-2.0820000171661377 -42.38199996948242,-2.0820000171661377 C-42.38199996948242,-2.0820000171661377 42.38199996948242,-2.0820000171661377 42.38199996948242,-2.0820000171661377 C42.38199996948242,-2.0820000171661377 42.38199996948242,2.0829999446868896 42.38199996948242,2.0829999446868896z"/>
                </g>
                <g opacity="1" transform="matrix(1,0,0,1,894.697021484375,698.572021484375)">
                    <path fill="rgb(175,128,175)" fill-opacity="1" d=" M60.46099853515625,2.0820000171661377 C60.46099853515625,2.0820000171661377 -60.46099853515625,2.0820000171661377 -60.46099853515625,2.0820000171661377 C-60.46099853515625,2.0820000171661377 -60.46099853515625,-2.0820000171661377 -60.46099853515625,-2.0820000171661377 C-60.46099853515625,-2.0820000171661377 60.46099853515625,-2.0820000171661377 60.46099853515625,-2.0820000171661377 C60.46099853515625,-2.0820000171661377 60.46099853515625,2.0820000171661377 60.46099853515625,2.0820000171661377z"/>
                </g>
                <g opacity="1" transform="matrix(1,0,0,1,894.697021484375,721.6010131835938)">
                    <path fill="rgb(175,128,175)" fill-opacity="1" d=" M60.46099853515625,2.0829999446868896 C60.46099853515625,2.0829999446868896 -60.46099853515625,2.0829999446868896 -60.46099853515625,2.0829999446868896 C-60.46099853515625,2.0829999446868896 -60.46099853515625,-2.0820000171661377 -60.46099853515625,-2.0820000171661377 C-60.46099853515625,-2.0820000171661377 60.46099853515625,-2.0820000171661377 60.46099853515625,-2.0820000171661377 C60.46099853515625,-2.0820000171661377 60.46099853515625,2.0829999446868896 60.46099853515625,2.0829999446868896z"/>
                </g>
                <g opacity="1" transform="matrix(1,0,0,1,894.697021484375,744.6300048828125)">
                    <path fill="rgb(175,128,175)" fill-opacity="1" d=" M60.46099853515625,2.0829999446868896 C60.46099853515625,2.0829999446868896 -60.46099853515625,2.0829999446868896 -60.46099853515625,2.0829999446868896 C-60.46099853515625,2.0829999446868896 -60.46099853515625,-2.0829999446868896 -60.46099853515625,-2.0829999446868896 C-60.46099853515625,-2.0829999446868896 60.46099853515625,-2.0829999446868896 60.46099853515625,-2.0829999446868896 C60.46099853515625,-2.0829999446868896 60.46099853515625,2.0829999446868896 60.46099853515625,2.0829999446868896z"/>
                </g>
                <g opacity="1" transform="matrix(1,0,0,1,894.697021484375,767.6580200195312)">
                    <path fill="rgb(175,128,175)" fill-opacity="1" d=" M60.46099853515625,2.0820000171661377 C60.46099853515625,2.0820000171661377 -60.46099853515625,2.0820000171661377 -60.46099853515625,2.0820000171661377 C-60.46099853515625,2.0820000171661377 -60.46099853515625,-2.0820000171661377 -60.46099853515625,-2.0820000171661377 C-60.46099853515625,-2.0820000171661377 60.46099853515625,-2.0820000171661377 60.46099853515625,-2.0820000171661377 C60.46099853515625,-2.0820000171661377 60.46099853515625,2.0820000171661377 60.46099853515625,2.0820000171661377z"/>
                </g>
            </g>
            <g transform="matrix(-0.8594180345535278,0.5112735629081726,-0.5112735629081726,-0.8594180345535278,751.0975341796875,1043.3409423828125)" opacity="1" style="display: block;">
                <g opacity="1" transform="matrix(1,0,0,1,253.78500366210938,591.27099609375)">
                    <path fill="rgb(209,51,73)" fill-opacity="1" d=" M22.145999908447266,-18.042999267578125 C12.885000228881836,-26.430999755859375 1.4119999408721924,-32.430999755859375 -11.3149995803833,-35.060001373291016 C-11.3149995803833,-35.060001373291016 -22.145999908447266,35.060001373291016 -22.145999908447266,35.060001373291016 C-22.145999908447266,35.060001373291016 22.145999908447266,-18.042999267578125 22.145999908447266,-18.042999267578125z"/>
                </g>
                <g opacity="1" transform="matrix(1,0,0,1,265.1130065917969,599.760986328125)">
                    <path fill="rgb(26,26,26)" fill-opacity="1" d=" M33.332000732421875,13.560999870300293 C30.451000213623047,-2.2090001106262207 22.392000198364258,-16.19700050354004 10.960000038146973,-26.551000595092773 C10.960000038146973,-26.551000595092773 -33.332000732421875,26.549999237060547 -33.332000732421875,26.549999237060547 C-33.332000732421875,26.549999237060547 33.332000732421875,13.560999870300293 33.332000732421875,13.560999870300293z"/>
                </g>
                <g opacity="1" transform="matrix(1,0,0,1,228.3419952392578,640.8610229492188)">
                    <path fill="rgb(236,236,236)" fill-opacity="1" d=" M3.9570000171661377,-14.461000442504883 C3.9570000171661377,-14.461000442504883 -56.91299819946289,-57.571998596191406 -56.91299819946289,-57.571998596191406 C-65.76499938964844,-45.845001220703125 -71.0989990234375,-31.29800033569336 -71.31300354003906,-15.479999542236328 C-71.8479995727539,24.03499984741211 -40.24800109863281,56.50199890136719 -0.7319999933242798,57.0369987487793 C38.78300094604492,57.571998596191406 71.25,25.972000122070312 71.78500366210938,-13.543000221252441 C71.8489990234375,-18.29599952697754 71.44300079345703,-22.94499969482422 70.62000274658203,-27.451000213623047 C70.62000274658203,-27.451000213623047 3.9570000171661377,-14.461000442504883 3.9570000171661377,-14.461000442504883z"/>
                </g>
                <g opacity="1" transform="matrix(1,0,0,1,206.50599670410156,590.572021484375)">
                    <path fill="rgb(127,127,127)" fill-opacity="1" d=" M-35.66400146484375,-6.50600004196167 C-35.66400146484375,-6.50600004196167 25.783000946044922,35.77799987792969 25.783000946044922,35.77799987792969 C25.783000946044922,35.77799987792969 35.66400146484375,-34.48099899291992 35.66400146484375,-34.48099899291992 C31.260000228881836,-35.327999114990234 26.71500015258789,-35.77799987792969 22.062000274658203,-35.77799987792969 C-1.6369999647140503,-35.77799987792969 -22.642000198364258,-24.253000259399414 -35.66400146484375,-6.50600004196167z M35.66400146484375,-35.77799987792969 C35.66400146484375,-35.77799987792969 35.66400146484375,-35.77799987792969 35.66400146484375,-35.77799987792969z"/>
                </g>
                <g opacity="1" transform="matrix(1,0,0,1,206.50599670410156,590.572021484375)">
                    <path fill="rgb(255,176,19)" fill-opacity="1" d=" M35.66400146484375,-34.48099899291992 C31.260000228881836,-35.32899856567383 26.714000701904297,-35.77799987792969 22.062000274658203,-35.77799987792969 C-1.6380000114440918,-35.77799987792969 -22.64299964904785,-24.253000259399414 -35.66400146484375,-6.505000114440918 C-35.66400146484375,-6.505000114440918 25.783000946044922,35.77799987792969 25.783000946044922,35.77799987792969 C25.783000946044922,35.77799987792969 35.66400146484375,-34.48099899291992 35.66400146484375,-34.48099899291992z"/>
                </g>
            </g>
        </g>
        <g clip-path="url(#__lottie_element_6582)" transform="matrix(1,0,0,1,0,0)" opacity="1" style="display: block;">
            <g transform="matrix(1,0,0,1,0,0)" opacity="1" style="display: block;">
                <g opacity="1" transform="matrix(1,0,0,1,724.4450073242188,631.1799926757812)">
                    <path stroke-linecap="butt" stroke-linejoin="miter" fill-opacity="0" stroke-miterlimit="10" stroke="rgb(16,32,64)" stroke-opacity="1" stroke-width="1.5" d=" M62.429595947265625,-245.28378295898438 C61.351593017578125,-243.6097869873047 85.09529876708984,-341.9569091796875 173.49729919433594,-334.2749328613281 C262.8572998046875,-326.5089111328125 265.4842224121094,-238.03822326660156 226.6662139892578,-187.53221130371094 C187.8482208251953,-137.0272216796875 167.73899841308594,-126.4749984741211 108.50900268554688,-115.33599853515625 C49.27899932861328,-104.19599914550781 -30.484243392944336,-42.05648422241211 10.594756126403809,48.315513610839844 C51.67375564575195,138.68751525878906 -42.02824401855469,131.9755096435547 -77.4532470703125,119.4985122680664 C-94.01824188232422,113.66451263427734 -242.96751403808594,49.393192291259766 -294.0570068359375,153.41879272460938 C-340.6856689453125,248.32545471191406 -171.34654235839844,350.64617919921875 -80.55599975585938,350.4960021972656 C-21.614042282104492,350.40484619140625 -34.667701721191406,305.134521484375 -73.12770080566406,294.1184997558594 C-100.68970489501953,286.2245178222656 -145.043212890625,283.5821533203125 -190.90621948242188,245.11715698242188 C-236.76821899414062,206.65216064453125 -273.2852478027344,98.81551361083984 -224.6532440185547,47.24451446533203 C-171.4972381591797,-9.12448501586914 -110.62826538085938,-45.6364860534668 48.35273742675781,-10.07048511505127 C177.59474182128906,18.842514038085938 259.71820068359375,-54.857215881347656 297.00421142578125,-145.48121643066406 C338.2292175292969,-245.68222045898438 250.23228454589844,-335.41290283203125 161.10728454589844,-318.7989196777344 C126.44728088378906,-312.3379211425781 96.39459228515625,-298.00079345703125 62.429595947265625,-245.28378295898438z"/>
                </g>
            </g>
            <g transform="matrix(1,0,0,1,0,19.62811279296875)" opacity="1" style="display: block;">
                <g opacity="1" transform="matrix(1,0,0,1,640.5910034179688,596.718017578125)">
                    <path fill="rgb(204,196,204)" fill-opacity="1" d=" M233.01199340820312,-110.2300033569336 C229.46200561523438,-123.87699890136719 220.81500244140625,-135.3280029296875 208.65899658203125,-142.4669952392578 C208.65899658203125,-142.4669952392578 25.37299919128418,-250.177001953125 25.37299919128418,-250.177001953125 C21.03700065612793,-252.7209930419922 16.37700080871582,-254.63400268554688 11.52299976348877,-255.85800170898438 C-11.038000106811523,-261.5469970703125 -35.0260009765625,-251.52200317382812 -46.849998474121094,-231.47300720214844 C-46.849998474121094,-231.47300720214844 -227.4219970703125,70.21299743652344 -227.4219970703125,70.21299743652344 C-234.56900024414062,82.36900329589844 -236.55499267578125,96.58300018310547 -233.0050048828125,110.2300033569336 C-229.46400451660156,123.87699890136719 -220.8159942626953,135.3280029296875 -208.65199279785156,142.47500610351562 C-208.65199279785156,142.47500610351562 -25.374000549316406,250.17599487304688 -25.374000549316406,250.17599487304688 C-21.030000686645508,252.7209930419922 -16.371000289916992,254.64199829101562 -11.517000198364258,255.85800170898438 C11.036999702453613,261.5469970703125 35.02399826049805,251.52200317382812 46.847999572753906,231.47300720214844 C46.847999572753906,231.47300720214844 227.42799377441406,-70.2040023803711 227.42799377441406,-70.2040023803711 C234.5760040283203,-82.36799621582031 236.5540008544922,-96.5739974975586 233.01199340820312,-110.2300033569336z M119.41899871826172,-174.17799377441406 C119.41899871826172,-174.17799377441406 127.77400207519531,-169.08900451660156 127.77400207519531,-169.08900451660156 C131.5189971923828,-166.80299377441406 132.7010040283203,-161.9250030517578 130.41600036621094,-158.18099975585938 C130.41600036621094,-158.18099975585938 129.572998046875,-156.78700256347656 129.572998046875,-156.78700256347656 C127.28800201416016,-153.05099487304688 122.40899658203125,-151.86000061035156 118.66500091552734,-154.14500427246094 C118.66500091552734,-154.14500427246094 81.37100219726562,-176.88499450683594 81.37100219726562,-176.88499450683594 C77.62699890136719,-179.16200256347656 76.44300079345703,-184.0489959716797 78.72100067138672,-187.79299926757812 C78.72100067138672,-187.79299926757812 79.57099914550781,-189.17799377441406 79.57099914550781,-189.17799377441406 C81.2979965209961,-192.01499938964844 84.50700378417969,-193.37600708007812 87.59500122070312,-192.8820037841797 C87.59500122070312,-192.8820037841797 119.41899871826172,-174.17799377441406 119.41899871826172,-174.17799377441406z"/>
                </g>
                <g opacity="1" transform="matrix(1,0,0,1,730.9010009765625,444.2019958496094)">
                    <path fill="rgb(100,132,197)" fill-opacity="1" d=" M121.71399688720703,73.2509994506836 C121.71399688720703,73.2509994506836 110.48300170898438,92.02100372314453 110.48300170898438,92.02100372314453 C110.48300170898438,92.02100372314453 -131.48599243164062,-53.64099884033203 -131.48599243164062,-53.64099884033203 C-131.48599243164062,-53.64099884033203 -121.79299926757812,-69.83100128173828 -121.79299926757812,-69.83100128173828 C-112.01899719238281,-86.46099853515625 -90.61699676513672,-92.0199966430664 -73.98799896240234,-82.24700164794922 C-73.98799896240234,-82.24700164794922 -2.7139999866485596,-40.3650016784668 -2.7139999866485596,-40.3650016784668 C-5.802000045776367,-40.86000061035156 -9.01099967956543,-39.499000549316406 -10.737000465393066,-36.66299819946289 C-10.737000465393066,-36.66299819946289 -11.588000297546387,-35.2760009765625 -11.588000297546387,-35.2760009765625 C-13.864999771118164,-31.531999588012695 -12.682000160217285,-26.645999908447266 -8.937000274658203,-24.368999481201172 C-8.937000274658203,-24.368999481201172 28.35700035095215,-1.628000020980835 28.35700035095215,-1.628000020980835 C32.10100173950195,0.6570000052452087 36.97999954223633,-0.5360000133514404 39.26499938964844,-4.270999908447266 C39.26499938964844,-4.270999908447266 40.108001708984375,-5.665999889373779 40.108001708984375,-5.665999889373779 C42.393001556396484,-9.409000396728516 41.209999084472656,-14.288000106811523 37.465999603271484,-16.572999954223633 C37.465999603271484,-16.572999954223633 29.110000610351562,-21.663000106811523 29.110000610351562,-21.663000106811523 C29.110000610351562,-21.663000106811523 109.29900360107422,25.45400047302246 109.29900360107422,25.45400047302246 C125.9280014038086,35.21900177001953 131.48699951171875,56.62200164794922 121.71399688720703,73.2509994506836z"/>
                </g>
                <g opacity="1" transform="matrix(1,0,0,1,630.0919799804688,615.9099731445312)">
                    <path fill="rgb(255,255,255)" fill-opacity="1" d=" M-30.673999786376953,-225.34800720214844 C-30.673999786376953,-225.34800720214844 -201.5189971923828,60.07099914550781 -201.5189971923828,60.07099914550781 C-211.29100036621094,76.70099639892578 -205.73199462890625,98.10199737548828 -189.10299682617188,107.875 C-189.10299682617188,107.875 -5.820000171661377,215.57699584960938 -5.820000171661377,215.57699584960938 C10.809000015258789,225.34800720214844 32.21200180053711,219.78900146484375 41.98400115966797,203.16000366210938 C41.98400115966797,203.16000366210938 211.2899932861328,-79.68800354003906 211.2899932861328,-79.68800354003906 C211.2899932861328,-79.68800354003906 -30.673999786376953,-225.34800720214844 -30.673999786376953,-225.34800720214844z"/>
                </g>
                <g opacity="1" transform="matrix(1,0,0,1,643.2249755859375,598.2650146484375)">
                    <path fill="url(#__lottie_element_6625)" fill-opacity="1" d=" M-19.583999633789062,-140.73199462890625 C-19.583999633789062,-140.73199462890625 -126.27899932861328,37.51499938964844 -126.27899932861328,37.51499938964844 C-132.3820037841797,47.9010009765625 -128.91000366210938,61.266998291015625 -118.5250015258789,67.37000274658203 C-118.5250015258789,67.37000274658203 -4.063000202178955,134.6300048828125 -4.063000202178955,134.6300048828125 C6.322999954223633,140.73300170898438 19.68899917602539,137.26100158691406 25.79199981689453,126.8759994506836 C25.79199981689453,126.8759994506836 132.3820037841797,-51.69300079345703 132.3820037841797,-51.69300079345703 C132.3820037841797,-51.69300079345703 -19.583999633789062,-140.73199462890625 -19.583999633789062,-140.73199462890625z"/>
                </g>
                <g opacity="1" transform="matrix(1,0,0,1,519.8930053710938,679.4739990234375)">
                    <path fill="rgb(204,196,204)" fill-opacity="1" d=" M37.72700119018555,27.697999954223633 C37.72700119018555,27.697999954223633 -42.11000061035156,-21.33099937438965 -42.11000061035156,-21.33099937438965 C-42.11000061035156,-21.33099937438965 -38.19499969482422,-27.697999954223633 -38.19499969482422,-27.697999954223633 C-38.19499969482422,-27.697999954223633 42.11000061035156,21.302000045776367 42.11000061035156,21.302000045776367 C42.11000061035156,21.302000045776367 37.72700119018555,27.697999954223633 37.72700119018555,27.697999954223633z"/>
                </g>
                <g opacity="1" transform="matrix(1,0,0,1,490.8760070800781,690.7880249023438)">
                    <path fill="rgb(204,196,204)" fill-opacity="1" d=" M24.187000274658203,18.841999053955078 C24.187000274658203,18.841999053955078 -27.732999801635742,-13.072999954223633 -27.732999801635742,-13.072999954223633 C-27.732999801635742,-13.072999954223633 -24.187000274658203,-18.841999053955078 -24.187000274658203,-18.841999053955078 C-24.187000274658203,-18.841999053955078 27.732999801635742,13.072999954223633 27.732999801635742,13.072999954223633 C27.732999801635742,13.072999954223633 24.187000274658203,18.841999053955078 24.187000274658203,18.841999053955078z"/>
                </g>
                <g opacity="1" transform="matrix(1,0,0,1,504.33599853515625,728.7999877929688)">
                    <path fill="rgb(209,51,73)" fill-opacity="1" d=" M50.41299819946289,36.08599853515625 C50.41299819946289,36.08599853515625 -53.95899963378906,-30.31599998474121 -53.95899963378906,-30.31599998474121 C-53.95899963378906,-30.31599998474121 -50.41299819946289,-36.08599853515625 -50.41299819946289,-36.08599853515625 C-50.41299819946289,-36.08599853515625 53.95899963378906,30.31599998474121 53.95899963378906,30.31599998474121 C53.95899963378906,30.31599998474121 50.41299819946289,36.08599853515625 50.41299819946289,36.08599853515625z"/>
                </g>
                <g opacity="1" transform="matrix(1,0,0,1,768.89599609375,391.9880065917969)">
                    <path fill="rgb(16,32,64)" fill-opacity="1" d=" M34.2760009765625,-30.219999313354492 C34.2760009765625,-30.219999313354492 18.059999465942383,-41.970001220703125 18.059999465942383,-41.970001220703125 C13.28600025177002,-45.4379997253418 6.60099983215332,-44.37799835205078 3.1410000324249268,-39.59700012207031 C3.1410000324249268,-39.59700012207031 -36.65800094604492,15.293000221252441 -36.65800094604492,15.293000221252441 C-40.11800003051758,20.073999404907227 -39.055999755859375,26.750999450683594 -34.275001525878906,30.219999313354492 C-34.275001525878906,30.219999313354492 -18.066999435424805,41.970001220703125 -18.066999435424805,41.970001220703125 C-13.28600025177002,45.4379997253418 -6.599999904632568,44.36899948120117 -3.1389999389648438,39.595001220703125 C-3.1389999389648438,39.595001220703125 36.65800094604492,-15.291999816894531 36.65800094604492,-15.291999816894531 C40.11800003051758,-20.073999404907227 39.05799865722656,-26.750999450683594 34.2760009765625,-30.219999313354492z M21.341999053955078,-20.770999908447266 C20.52400016784668,-17.538000106811523 17.233999252319336,-15.567999839782715 13.991999626159668,-16.386999130249023 C10.75,-17.204999923706055 8.788999557495117,-20.4950008392334 9.607999801635742,-23.72800064086914 C10.425999641418457,-26.969999313354492 13.715999603271484,-28.940000534057617 16.948999404907227,-28.121000289916992 C20.191999435424805,-27.30299949645996 22.15999984741211,-24.01300048828125 21.341999053955078,-20.770999908447266z"/>
                </g>
            </g>
            <g mask="url(#__lottie_element_6629_1)" style="display: block;">
                <g transform="matrix(0.9994461536407471,0.033277761191129684,-0.033277761191129684,0.9994461536407471,20.2989501953125,-0.0062255859375)" opacity="1">
                    <g opacity="1" transform="matrix(1,0,0,1,605.468994140625,688.1920166015625)">
                        <path fill="rgb(20,42,82)" fill-opacity="1" d=" M67.58699798583984,63.34400177001953 C67.58699798583984,63.34400177001953 67.58699798583984,63.35200119018555 67.58699798583984,63.35200119018555 C67.25399780273438,91.63500213623047 64.52999877929688,163.44500732421875 63.558998107910156,179.76600646972656 C61.06999969482422,183.31500244140625 58.02399826049805,186.27200317382812 54.595001220703125,188.58099365234375 C43.792999267578125,195.90699768066406 29.30299949645996,196.84800720214844 17.301000595092773,189.7969970703125 C17.301000595092773,189.7969970703125 -51.28300094604492,149.49000549316406 -51.28300094604492,149.49000549316406 C-52.19900131225586,140.072998046875 -52.00299835205078,82.68099975585938 -53.801998138427734,70.09500122070312 C-67.73300170898438,-27.410999298095703 -55.40700149536133,-78.2969970703125 -55.40700149536133,-78.2969970703125 C-55.40700149536133,-78.2969970703125 25.665000915527344,-150.3489990234375 51.768001556396484,-88.96199798583984 C52.17300033569336,-88.02200317382812 52.5620002746582,-87.04100036621094 52.935001373291016,-86.03600311279297 C62.78099822998047,-59.569000244140625 66.51699829101562,-16.447999954223633 67.43299865722656,25.886999130249023 C67.70800018310547,38.60300064086914 67.73300170898438,51.24399948120117 67.58699798583984,63.34400177001953z"/>
                    </g>
                    <g opacity="1" transform="matrix(1,0,0,1,658.7880249023438,762.6220092773438)">
                        <path fill="rgb(16,32,64)" fill-opacity="1" d=" M14.267999649047852,-11.086000442504883 C14.267999649047852,-11.086000442504883 14.267999649047852,-11.07800006866455 14.267999649047852,-11.07800006866455 C13.9350004196167,17.204999923706055 11.211000442504883,88.01399993896484 10.239999771118164,104.33499908447266 C7.750999927520752,107.88400268554688 -0.019999999552965164,105.34200286865234 -3.4489998817443848,107.6510009765625 C-2.177000045776367,84.10199737548828 5.0370001792907715,7.78000020980835 -0.0860000029206276,-3.8010001182556152 C-7.888999938964844,-21.41900062561035 -12.557000160217285,-61.321998596191406 -12.557000160217285,-61.321998596191406 C-12.557000160217285,-61.321998596191406 -14.413999557495117,-67.6510009765625 -14.413999557495117,-67.6510009765625 C-13.593999862670898,-67.03600311279297 0.7250000238418579,-57.46500015258789 14.11299991607666,-48.542999267578125 C14.387999534606934,-35.82699966430664 14.413999557495117,-23.18600082397461 14.267999649047852,-11.086000442504883z"/>
                    </g>
                </g>
            </g>
            <g mask="url(#__lottie_element_6635_1)" style="display: block;">
                <g transform="matrix(0.9994461536407471,-0.033277761191129684,0.033277761191129684,0.9994461536407471,-19.3648681640625,42.11956787109375)" opacity="1">
                    <g opacity="1" transform="matrix(1,0,0,1,690.2680053710938,679.3619995117188)">
                        <path fill="rgb(20,42,82)" fill-opacity="1" d=" M122.02400207519531,91.66100311279297 C122.02400207519531,91.66100311279297 34.63399887084961,161.906005859375 34.63399887084961,161.906005859375 C34.63399887084961,161.906005859375 -17.211999893188477,72.17400360107422 -17.211999893188477,72.17400360107422 C-17.211999893188477,72.17400360107422 -40.632999420166016,33.53499984741211 -40.632999420166016,33.53499984741211 C-40.632999420166016,33.53499984741211 -69.52400207519531,-64.822998046875 -69.52400207519531,-64.822998046875 C-69.52400207519531,-64.822998046875 -64.36199951171875,-64.822998046875 -64.36199951171875,-64.822998046875 C-64.36199951171875,-64.822998046875 -33.03200149536133,-80.13200378417969 -33.03200149536133,-80.13200378417969 C-33.03200149536133,-80.13200378417969 17.66699981689453,-104.90599822998047 17.66699981689453,-104.90599822998047 C17.66699981689453,-104.90599822998047 104.01699829101562,41.61899948120117 122.02400207519531,91.66100311279297z"/>
                    </g>
                </g>
            </g>
            <g transform="matrix(0.9594725370407104,0.2818020284175873,-0.2818020284175873,0.9594725370407104,149.71255493164062,-118.75951385498047)" opacity="1" style="display: block;">
                <g opacity="1" transform="matrix(1,0,0,1,303.3110046386719,482.0780029296875)">
                    <path fill="rgb(251,148,144)" fill-opacity="1" d=" M41.65299987792969,12.991999626159668 C41.65299987792969,12.991999626159668 29.52899932861328,3.4679999351501465 26.93199920654297,-14.545000076293945 C24.333999633789062,-32.55699920654297 15.32800006866455,-30.825000762939453 17.059999465942383,-20.086999893188477 C18.79199981689453,-9.348999977111816 14.729999542236328,-7.261000156402588 8.053000450134277,-13.331999778747559 C1.378000020980835,-19.402999877929688 -35.417999267578125,-27.187999725341797 -38.53499984741211,-14.024999618530273 C-41.65299987792969,-0.8619999885559082 -10.649999618530273,12.970000267028809 4.989999771118164,21.999000549316406 C20.6299991607666,31.02899932861328 26.23900032043457,32.55699920654297 26.23900032043457,32.55699920654297 C26.23900032043457,32.55699920654297 41.65299987792969,12.991999626159668 41.65299987792969,12.991999626159668z"/>
                </g>
            </g>
            <g transform="matrix(0.9759513139724731,0.21798858046531677,-0.21798858046531677,0.9759513139724731,111.90045166015625,-105.44854736328125)" opacity="1" style="display: block;">
                <g opacity="1" transform="matrix(1,0,0,1,438.3890075683594,515.135986328125)">
                    <path fill="rgb(255,222,111)" fill-opacity="1" d=" M121.47899627685547,10.300000190734863 C121.47899627685547,10.300000190734863 121.09700012207031,10.720999717712402 120.36799621582031,11.482999801635742 C113.60900115966797,18.476999282836914 76.58300018310547,54.25600051879883 21.961999893188477,59.32099914550781 C1.6699999570846558,61.20100021362305 -18.459999084472656,60.81999969482422 -43.84199905395508,50.479000091552734 C-63.9630012512207,42.29399871826172 -87.39199829101562,27.85300064086914 -116.82599639892578,3.322000026702881 C-121.47799682617188,-12.975000381469727 -92.63740539550781,-31.528230667114258 -92.63740539550781,-31.528230667114258 C-92.63740539550781,-31.528230667114258 -23.784509658813477,32.765098571777344 25.569318771362305,-1.911280632019043 C74.70851135253906,-36.45293045043945 96.48936462402344,-61.234134674072266 96.48936462402344,-61.234134674072266 C96.48936462402344,-61.234134674072266 118.18800354003906,0.8510000109672546 118.18800354003906,0.8510000109672546 C118.18800354003906,0.8510000109672546 120.93499755859375,8.736000061035156 120.93499755859375,8.736000061035156 C120.93499755859375,8.736000061035156 121.47899627685547,10.300000190734863 121.47899627685547,10.300000190734863z"/>
                </g>
                <g opacity="1" transform="matrix(1,0,0,1,477.2070007324219,545.031005859375)">
                    <path fill="rgb(255,176,19)" fill-opacity="1" d=" M81.55000305175781,-18.41200065612793 C74.79100036621094,-11.418999671936035 37.76499938964844,24.360000610351562 -16.856000900268555,29.424999237060547 C-37.14799880981445,31.305999755859375 -57.27799987792969,30.924999237060547 -82.66000366210938,20.583999633789062 C-74.80699920654297,21.191999435424805 -66.93800354003906,21.67799949645996 -59.07699966430664,22.075000762939453 C-37.80400085449219,23.160999298095703 -14.878000259399414,26.354000091552734 5.453999996185303,18.047000885009766 C20.632999420166016,11.847999572753906 33.75299835205078,1.2230000495910645 44.90399932861328,-10.631999969482422 C48.83399963378906,-14.805999755859375 52.5629997253418,-19.190000534057617 56.03099822998047,-23.768999099731445 C56.57400131225586,-24.48200035095215 58.99599838256836,-28.988000869750977 59.88800048828125,-29.134000778198242 C59.88800048828125,-29.134000778198242 73.06600189208984,-31.305999755859375 79.37000274658203,-29.045000076293945 C81.35600280761719,-28.332000732421875 81.76799774169922,-19.409000396728516 81.55000305175781,-18.41200065612793z"/>
                </g>
            </g>
            <g transform="matrix(1,0,0,1,0,0)" opacity="1" style="display: block;">
                <g opacity="1" transform="matrix(1,0,0,1,616.4299926757812,537.885986328125)">
                    <path fill="rgb(238,85,104)" fill-opacity="1" d=" M-97.56199645996094,-35.93600082397461 C-97.56199645996094,-35.93600082397461 -71.00700378417969,104.51100158691406 -71.00700378417969,104.51100158691406 C-71.00700378417969,104.51100158691406 69.83499908447266,129.2740020751953 101.56300354003906,42.60200119018555 C54.356998443603516,-99.78800201416016 72.15799713134766,-129.2740020751953 -13.739999771118164,-114.57099914550781 C-99.63800048828125,-99.86799621582031 -101.56300354003906,-57.097999572753906 -97.56199645996094,-35.93600082397461z"/>
                </g>
                <g opacity="1" transform="matrix(1,0,0,1,670.3489990234375,529.5969848632812)">
                    <path fill="rgb(255,222,111)" fill-opacity="1" d=" M1.5399999618530273,116.07599639892578 C1.5399999618530273,116.07599639892578 -32.35100173950195,57.63999938964844 -47.367000579833984,-5.5229997634887695 C-62.393001556396484,-68.68499755859375 -45.05799865722656,-111.43299865722656 -45.05799865722656,-111.43299865722656 C-45.05799865722656,-111.43299865722656 -32.797000885009766,-116.07599639892578 -10.67300033569336,-105.86499786376953 C-1.190999984741211,-101.48899841308594 12.755999565124512,-76.73200225830078 25.770000457763672,-48.270999908447266 C35.608001708984375,-26.7549991607666 44.9119987487793,-3.125 51.354000091552734,15.416999816894531 C56.257999420166016,29.525999069213867 59.50699996948242,40.69300079345703 60.08300018310547,45.742000579833984 C62.393001556396484,66.18800354003906 1.5399999618530273,116.07599639892578 1.5399999618530273,116.07599639892578z"/>
                </g>
                <g opacity="1" transform="matrix(1,0,0,1,557.072021484375,545.5009765625)">
                    <path fill="rgb(255,222,111)" fill-opacity="1" d=" M33.7599983215332,113.66600036621094 C33.7599983215332,113.66600036621094 -20.933000564575195,96.89900207519531 -20.933000564575195,96.89900207519531 C-20.933000564575195,96.89900207519531 -24.174999237060547,76.3479995727539 -28.031999588012695,51.21699905395508 C-31.792999267578125,26.7189998626709 -36.15299987792969,-2.13100004196167 -38.65700149536133,-20.4950008392334 C-38.65700149536133,-20.4950008392334 -38.65700149536133,-20.503000259399414 -38.65700149536133,-20.503000259399414 C-38.90800094604492,-22.333999633789062 -39.143001556396484,-24.052000045776367 -39.354000091552734,-25.656999588012695 C-43.85900115966797,-59.9370002746582 -40.39099884033203,-93.44599914550781 4.861999988555908,-113.66600036621094 C4.861999988555908,-113.66600036621094 31.72599983215332,-57.05099868774414 37.78799819946289,5.341000080108643 C43.858001708984375,67.73300170898438 33.7599983215332,113.66600036621094 33.7599983215332,113.66600036621094z"/>
                </g>
                <g opacity="1" transform="matrix(1,0,0,1,591.6950073242188,415.572998046875)">
                    <path fill="rgb(251,148,144)" fill-opacity="1" d=" M26.160999298095703,15.817999839782715 C26.160999298095703,15.817999839782715 -1.3890000581741333,48.0629997253418 -16.865999221801758,20.97800064086914 C-20.944000244140625,-4.169000148773193 -26.160999298095703,-35.99700164794922 -26.160999298095703,-35.99700164794922 C-26.160999298095703,-35.99700164794922 19.760000228881836,-47.8129997253418 19.760000228881836,-47.8129997253418 C19.760000228881836,-47.8129997253418 15.843999862670898,-0.9490000009536743 26.160999298095703,15.817999839782715z"/>
                </g>
                <g opacity="1" transform="matrix(1,0,0,1,579.3079833984375,409.5589904785156)">
                    <path fill="rgb(219,103,103)" fill-opacity="1" d=" M-9.121999740600586,-1.6419999599456787 C-9.121999740600586,-1.6419999599456787 2.328000068664551,-1.8270000219345093 9.121999740600586,-4.980000019073486 C2.8919999599456787,2.989000082015991 -8.04800033569336,4.980000019073486 -8.04800033569336,4.980000019073486 C-8.04800033569336,4.980000019073486 -9.121999740600586,-1.6419999599456787 -9.121999740600586,-1.6419999599456787z"/>
                </g>
            </g>
            <g transform="matrix(0.9718399047851562,-0.2356421947479248,0.2356421947479248,0.9718399047851562,-79.76922607421875,148.7899169921875)" opacity="1" style="display: block;">
                <g opacity="1" transform="matrix(1,0,0,1,546.5059814453125,333.6109924316406)">
                    <path fill="rgb(16,32,64)" fill-opacity="1" d=" M8.8100004196167,-18.631000518798828 C8.8100004196167,-18.631000518798828 -9.675999641418457,-4.776000022888184 -8.232000350952148,6.927999973297119 C-6.788000106811523,18.631000518798828 5.054999828338623,12.854000091552734 7.366000175476074,10.543000221252441 C9.677000045776367,8.232000350952148 8.8100004196167,-18.631000518798828 8.8100004196167,-18.631000518798828z"/>
                </g>
                <g opacity="1" transform="matrix(1,0,0,1,575.1699829101562,360.70001220703125)">
                    <path fill="rgb(251,148,144)" fill-opacity="1" d=" M-4.984000205993652,47.21699905395508 C-4.984000205993652,47.21699905395508 -39.034000396728516,51.861000061035156 -39.034000396728516,19.358999252319336 C-39.034000396728516,-13.144000053405762 -18.139999389648438,-51.86199951171875 7.3979997634887695,-51.86199951171875 C32.933998107910156,-51.86199951171875 39.03499984741211,-49.92900085449219 39.03499984741211,1.4889999628067017 C39.03499984741211,49.13800048828125 -4.984000205993652,47.21699905395508 -4.984000205993652,47.21699905395508z"/>
                </g>
                <g opacity="1" transform="matrix(1,0,0,1,588.5999755859375,347.3590087890625)">
                    <path fill="rgb(16,32,64)" fill-opacity="1" d=" M26.547000885009766,49.237998962402344 C26.547000885009766,49.237998962402344 34.58700180053711,28.89699935913086 36.46200180053711,22.760000228881836 C38.33700180053711,16.624000549316406 47.428001403808594,-26.329999923706055 30.381999969482422,-35.194000244140625 C13.336999893188477,-44.05699920654297 2.507999897003174,-45.50600051879883 2.507999897003174,-45.50600051879883 C2.507999897003174,-45.50600051879883 -11.987000465393066,-52.61000061035156 -26.461999893188477,-46.78499984741211 C-47.428001403808594,-38.34700012207031 -43.22600173950195,-7.9720001220703125 -43.22600173950195,-7.9720001220703125 C-43.22600173950195,-7.9720001220703125 -35.569000244140625,-8.081000328063965 -35.569000244140625,-8.081000328063965 C-35.569000244140625,-8.081000328063965 -20.66699981689453,-18.319000244140625 -12.484999656677246,-16.27400016784668 C-4.302999973297119,-14.227999687194824 5.428999900817871,-2.75 5.428999900817871,-2.75 C5.428999900817871,-2.75 4.730999946594238,6.73799991607666 5.923999786376953,10.48799991607666 C7.117000102996826,14.23799991607666 11.720000267028809,10.657999992370605 11.720000267028809,10.657999992370605 C11.720000267028809,10.657999992370605 14.276000022888184,5.479000091552734 21.264999389648438,7.354000091552734 C28.253999710083008,9.229000091552734 21.16900062561035,27.007999420166016 18.10700035095215,28.729999542236328 C10.715999603271484,32.882999420166016 21.52899932861328,52.61000061035156 26.547000885009766,49.237998962402344z"/>
                </g>
            </g>
            <g transform="matrix(0.9253764748573303,-0.3790494203567505,0.3790494203567505,0.9253764748573303,-98.7394027709961,304.5165710449219)" opacity="1" style="display: block;">
                <g opacity="1" transform="matrix(1,0,0,1,872.9569702148438,373.4530029296875)">
                    <path fill="rgb(251,148,144)" fill-opacity="1" d=" M-29.246999740600586,21.267000198364258 C-29.246999740600586,21.267000198364258 -23.469999313354492,14.479000091552734 -22.024999618530273,-0.9750000238418579 C-20.58099937438965,-16.42799949645996 -20.292999267578125,-22.350000381469727 -14.65999984741211,-22.350000381469727 C-9.027000427246094,-22.350000381469727 -12.781999588012695,-4.1519999504089355 -8.305999755859375,-4.1519999504089355 C-3.828000068664551,-4.1519999504089355 0.6489999890327454,-14.984000205993652 4.4039998054504395,-23.07200050354004 C8.159000396728516,-31.15999984741211 29.246000289916992,-36.72100067138672 29.246000289916992,-16.31999969482422 C29.246000289916992,4.079999923706055 22.388999938964844,4.61299991607666 9.892999649047852,17.108999252319336 C-0.3100000023841858,27.312000274658203 -12.350000381469727,36.72100067138672 -12.350000381469727,36.72100067138672 C-12.350000381469727,36.72100067138672 -29.246999740600586,21.267000198364258 -29.246999740600586,21.267000198364258z"/>
                </g>
            </g>
            <g transform="matrix(0.9716156721115112,-0.2365650087594986,0.2365650087594986,0.9716156721115112,-80.99365234375,164.40846252441406)" opacity="1" style="display: block;">
                <g opacity="1" transform="matrix(1,0,0,1,695.4509887695312,513.1710205078125)">
                    <path fill="rgb(255,176,19)" fill-opacity="1" d=" M-6.184633731842041,33.501277923583984 C-24.873924255371094,22.63526725769043 -43.25712585449219,-18.835880279541016 -43.25712585449219,-18.835880279541016 C-43.25712585449219,-18.835880279541016 -16.184860229492188,-18.619321823120117 -16.184860229492188,-18.619321823120117 C-9.78079891204834,8.579997062683105 -7.566507339477539,16.005455017089844 -6.184633731842041,33.501277923583984z"/>
                </g>
                <g opacity="1" transform="matrix(1,0,0,1,757.8670043945312,449.56298828125)">
                    <path fill="rgb(255,222,111)" fill-opacity="1" d=" M106.78099822998047,-29.64900016784668 C106.78099822998047,-29.64900016784668 63.2474365234375,29.34423828125 13.067434310913086,50.5682373046875 C3.3024346828460693,54.6932373046875 -6.802565574645996,57.1572380065918 -17.022565841674805,57.1572380065918 C-79.7795639038086,57.1572380065918 -104.87261962890625,45.69204330444336 -104.87261962890625,45.69204330444336 C-104.87261962890625,45.69204330444336 -111.68657684326172,-30.041576385498047 -111.68657684326172,-30.041576385498047 C-111.68657684326172,-30.041576385498047 -83.03373718261719,-26.53154945373535 -42.37047576904297,-7.964923858642578 C-1.818820834159851,10.551997184753418 64.73361206054688,-47.347801208496094 80.8501968383789,-63.31418991088867 C97.82819366455078,-55.113189697265625 105.16899871826172,-47.9630012512207 107.98899841308594,-42.362998962402344 C111.99199676513672,-34.41299819946289 106.78099822998047,-29.64900016784668 106.78099822998047,-29.64900016784668z"/>
                </g>
                <g opacity="1" transform="matrix(1,0,0,1,821.6489868164062,456.7590026855469)">
                    <path fill="rgb(255,176,19)" fill-opacity="1" d=" M43,-36.845001220703125 C43,-36.845001220703125 -0.5367255210876465,22.140470504760742 -50.71672439575195,43.364471435546875 C-35.990726470947266,34.960472106933594 -22.26998519897461,25.728843688964844 10.26711368560791,-6.67313289642334 C29.9122371673584,-26.23708724975586 39.62799835205078,-40.11899948120117 44.207000732421875,-49.560001373291016 C48.209999084472656,-41.61000061035156 43,-36.845001220703125 43,-36.845001220703125z"/>
                </g>
            </g>
        </g>
    </g>
</svg>